<?xml version="1.0" encoding="UTF-8"?>
<svg version="1.1" xmlns="http://www.w3.org/2000/svg" width="400" height="98">
<path d="M0 0 C0.680625 0.07863281 1.36125 0.15726562 2.0625 0.23828125 C4 0.6875 4 0.6875 7 2.6875 C6.79322632 3.63931152 6.79322632 3.63931152 6.58227539 4.61035156 C5.04655735 12.23891617 4.61383067 19.67034886 4.4375 27.4375 C4.26197962 34.27159123 4.06017034 40.93243237 3 47.6875 C3.2981424 49.02914079 3.62243192 50.36601173 4 51.6875 C3 54.6875 3 54.6875 0.6875 56.375 C-5.54234741 58.59240331 -12.63313253 58.5762358 -19 56.6875 C-19 56.0275 -19 55.3675 -19 54.6875 C-19.99 54.6875 -20.98 54.6875 -22 54.6875 C-21.979375 53.635625 -21.95875 52.58375 -21.9375 51.5 C-21.98921269 48.34552577 -22.11363963 45.70112527 -23 42.6875 C-23.99 42.1925 -23.99 42.1925 -25 41.6875 C-25 40.6975 -25 39.7075 -25 38.6875 C-26.40185547 38.93886719 -26.40185547 38.93886719 -27.83203125 39.1953125 C-33.69490877 40.03645023 -39.62265059 39.65952896 -45.52539062 39.47265625 C-46.42837891 39.45847656 -47.33136719 39.44429687 -48.26171875 39.4296875 C-49.07600342 39.4076123 -49.89028809 39.38553711 -50.72924805 39.36279297 C-53.52736012 39.76291006 -54.89463203 40.85393838 -57 42.6875 C-56.525625 43.739375 -56.05125 44.79125 -55.5625 45.875 C-54.30676259 48.78925851 -53.47765619 51.53496914 -53 54.6875 C-53.99 55.1825 -53.99 55.1825 -55 55.6875 C-57.125 54.75 -57.125 54.75 -59 53.6875 C-59.2475 54.326875 -59.495 54.96625 -59.75 55.625 C-61 57.6875 -61 57.6875 -62.63671875 58.30859375 C-65.79862472 58.81554396 -68.86112316 58.81923265 -72.0625 58.8125 C-73.90521484 58.81636719 -73.90521484 58.81636719 -75.78515625 58.8203125 C-79 58.6875 -79 58.6875 -82 57.6875 C-84.3125 55 -84.3125 55 -86 51.6875 C-85.3125 48.5625 -85.3125 48.5625 -84 45.6875 C-82.67393539 41.70930616 -82.93073161 37.84360343 -83 33.6875 C-82.07767578 33.48833984 -82.07767578 33.48833984 -81.13671875 33.28515625 C-80.32847656 33.10855469 -79.52023438 32.93195312 -78.6875 32.75 C-77.88699219 32.57597656 -77.08648437 32.40195312 -76.26171875 32.22265625 C-73.854599 31.68863841 -73.854599 31.68863841 -71 30.6875 C-70.34 31.0175 -69.68 31.3475 -69 31.6875 C-66.5093853 31.59276496 -64.04638453 31.43899713 -61.5625 31.25 C-49.05377019 30.4102145 -36.52987476 30.59682511 -24 30.6875 C-23.17084454 26.83747243 -22.95203121 23.44325558 -23.0625 19.5 C-23.12248462 13.64816741 -22.43163823 8.3501405 -21 2.6875 C-17.5009166 1.28786664 -14.5545744 0.56274738 -10.8125 0.625 C-6.91629116 0.68887228 -3.86135877 -0.48998303 0 0 Z " fill="#E06237" transform="translate(88,7.3125)"/>
<path d="M0 0 C6.52339826 0.7293823 13.03263875 0.72078387 19.58764648 0.70068359 C21.68936221 0.69527757 23.79086848 0.70068389 25.89257812 0.70703125 C27.24349005 0.70637113 28.59440185 0.70509135 29.9453125 0.703125 C31.75866089 0.70143311 31.75866089 0.70143311 33.60864258 0.69970703 C36.79868022 0.66227595 36.79868022 0.66227595 39.6081543 -0.00048828 C41.86328125 -0.4296875 41.86328125 -0.4296875 44.86328125 0.5703125 C52.87060558 1.88566434 60.73904934 2.85537327 68.86328125 2.5703125 C67.43055655 7.70424269 65.4381437 11.4906159 61.23828125 14.8828125 C59.63965199 16.84476659 59.362284 18.24472297 58.80078125 20.6953125 C58.33671875 22.6134375 58.33671875 22.6134375 57.86328125 24.5703125 C57.20328125 24.9003125 56.54328125 25.2303125 55.86328125 25.5703125 C55.20773006 28.09764485 55.20773006 28.09764485 54.86328125 30.5703125 C53.87328125 30.5703125 52.88328125 30.5703125 51.86328125 30.5703125 C51.77046875 31.4675 51.77046875 31.4675 51.67578125 32.3828125 C50.54172934 35.43602917 48.61798742 35.93060645 45.86328125 37.5703125 C44.82970978 39.21637076 43.82267793 40.87994692 42.86328125 42.5703125 C42.20328125 42.5703125 41.54328125 42.5703125 40.86328125 42.5703125 C40.70859375 43.405625 40.70859375 43.405625 40.55078125 44.2578125 C39.5142488 47.74433076 38.22092303 50.71413034 35.07202148 52.69995117 C30.87332777 54.35446019 26.38209516 53.89727166 21.92578125 53.8828125 C20.93642578 53.89892578 19.94707031 53.91503906 18.92773438 53.93164062 C9.97695376 53.93765998 9.97695376 53.93765998 5.86328125 50.5703125 C6.55078125 47.6953125 6.55078125 47.6953125 7.86328125 44.5703125 C10.48828125 43.1953125 10.48828125 43.1953125 12.86328125 42.5703125 C12.53328125 41.5803125 12.20328125 40.5903125 11.86328125 39.5703125 C16.33519986 36.03985044 19.95690461 34.93078488 25.59375 34.16015625 C28.21449007 33.47903448 29.10166864 32.56886716 30.86328125 30.5703125 C33.05078125 29.3828125 33.05078125 29.3828125 34.86328125 28.5703125 C34.86328125 28.2403125 34.86328125 27.9103125 34.86328125 27.5703125 C33.85265625 27.5909375 32.84203125 27.6115625 31.80078125 27.6328125 C27.86328125 27.5703125 27.86328125 27.5703125 24.57006836 27.07250977 C20.8641921 26.5704359 17.35457019 26.45661598 13.6171875 26.47265625 C12.96121078 26.4740712 12.30523407 26.47548615 11.62937927 26.47694397 C9.56146423 26.48248219 7.49366283 26.49502248 5.42578125 26.5078125 C4.01237137 26.51283551 2.59895977 26.517397 1.18554688 26.52148438 C-2.25524443 26.53243124 -5.69597047 26.54965212 -9.13671875 26.5703125 C-9.46671875 25.5803125 -9.79671875 24.5903125 -10.13671875 23.5703125 C-10.79671875 23.2403125 -11.45671875 22.9103125 -12.13671875 22.5703125 C-11.47671875 21.9103125 -10.81671875 21.2503125 -10.13671875 20.5703125 C-9.49419525 18.50157216 -9.49419525 18.50157216 -9.13671875 16.5703125 C-8.47671875 16.5703125 -7.81671875 16.5703125 -7.13671875 16.5703125 C-7.15734375 15.4771875 -7.17796875 14.3840625 -7.19921875 13.2578125 C-7.13671875 9.5703125 -7.13671875 9.5703125 -6.13671875 6.5703125 C-6.79671875 6.2403125 -7.45671875 5.9103125 -8.13671875 5.5703125 C-8.13671875 4.9103125 -8.13671875 4.2503125 -8.13671875 3.5703125 C-7.47671875 3.2403125 -6.81671875 2.9103125 -6.13671875 2.5703125 C-6.13671875 1.9103125 -6.13671875 1.2503125 -6.13671875 0.5703125 C-3.68534291 -0.65537542 -2.69286703 -0.3648933 0 0 Z M15.86328125 10.5703125 C15.86328125 13.8703125 15.86328125 17.1703125 15.86328125 20.5703125 C19.25932867 20.624361 22.65451198 20.66401048 26.05078125 20.6953125 C27.01048828 20.71207031 27.97019531 20.72882812 28.95898438 20.74609375 C30.35600586 20.75576172 30.35600586 20.75576172 31.78125 20.765625 C32.63485107 20.77609863 33.48845215 20.78657227 34.36791992 20.79736328 C39.09417861 20.36732507 42.19741301 18.72165445 45.23828125 15.1328125 C45.76164062 14.53597656 46.285 13.93914063 46.82421875 13.32421875 C47.16710937 12.74542969 47.51 12.16664062 47.86328125 11.5703125 C47.53328125 10.5803125 47.20328125 9.5903125 46.86328125 8.5703125 C42.82167569 8.51199855 38.7801792 8.47661038 34.73828125 8.4453125 C33.59617187 8.42855469 32.4540625 8.41179688 31.27734375 8.39453125 C30.16875 8.38808594 29.06015625 8.38164063 27.91796875 8.375 C26.90202637 8.36452637 25.88608398 8.35405273 24.83935547 8.34326172 C21.58039696 8.59189432 18.91212918 9.42152886 15.86328125 10.5703125 Z M28.86328125 39.5703125 C27.21328125 40.8903125 25.56328125 42.2103125 23.86328125 43.5703125 C24.85328125 43.5703125 25.84328125 43.5703125 26.86328125 43.5703125 C27.19328125 44.5603125 27.52328125 45.5503125 27.86328125 46.5703125 C28.9884421 44.73746807 28.9884421 44.73746807 29.86328125 42.5703125 C29.53328125 41.5803125 29.20328125 40.5903125 28.86328125 39.5703125 Z " fill="#EDC398" transform="translate(242.13671875,37.4296875)"/>
<path d="M0 0 C5.94292438 0.57664946 11.8276001 0.56124831 17.79296875 0.484375 C19.83718841 0.45901247 21.8814673 0.43792982 23.92578125 0.421875 C24.81410645 0.41027344 25.70243164 0.39867187 26.61767578 0.38671875 C28.66796875 0.484375 28.66796875 0.484375 29.66796875 1.484375 C29.90052689 6.01925872 29.90052689 6.01925872 28.66796875 8.484375 C29.06735642 10.58258715 29.06735642 10.58258715 29.66796875 12.484375 C25.92275787 16.15911148 21.88836623 16.22160329 16.91796875 16.671875 C14.19546875 16.94 11.47296875 17.208125 8.66796875 17.484375 C14.93796875 17.484375 21.20796875 17.484375 27.66796875 17.484375 C27.33796875 19.464375 27.00796875 21.444375 26.66796875 23.484375 C26.00796875 23.484375 25.34796875 23.484375 24.66796875 23.484375 C24.66796875 24.144375 24.66796875 24.804375 24.66796875 25.484375 C17.02720657 25.5538656 9.38647713 25.6071814 1.745471 25.63981152 C-1.80253061 25.65547193 -5.35031612 25.67671651 -8.89819336 25.71069336 C-12.97642092 25.74950507 -17.05442126 25.76408102 -21.1328125 25.77734375 C-22.40788162 25.79282761 -23.68295074 25.80831146 -24.99665833 25.82426453 C-26.1776561 25.82449112 -27.35865387 25.82471771 -28.57543945 25.82495117 C-30.13763969 25.83494392 -30.13763969 25.83494392 -31.73139954 25.84513855 C-34.33203125 25.484375 -34.33203125 25.484375 -36.19181824 24.08808899 C-37.33203125 22.484375 -37.33203125 22.484375 -37.33203125 20.484375 C-34.03203125 19.494375 -30.73203125 18.504375 -27.33203125 17.484375 C-27.33203125 16.824375 -27.33203125 16.164375 -27.33203125 15.484375 C-28.32203125 15.484375 -29.31203125 15.484375 -30.33203125 15.484375 C-30.66203125 14.494375 -30.99203125 13.504375 -31.33203125 12.484375 C-29.89453125 10.296875 -29.89453125 10.296875 -28.33203125 8.484375 C-29.75515625 8.113125 -29.75515625 8.113125 -31.20703125 7.734375 C-34.33203125 6.484375 -34.33203125 6.484375 -35.52734375 4.40625 C-35.79289062 3.77203125 -36.0584375 3.1378125 -36.33203125 2.484375 C-24.4663356 -1.49454091 -12.3224946 -1.24773554 0 0 Z M-27.33203125 8.484375 C-27.00203125 9.144375 -26.67203125 9.804375 -26.33203125 10.484375 C-25.34203125 10.154375 -24.35203125 9.824375 -23.33203125 9.484375 C-24.65203125 9.154375 -25.97203125 8.824375 -27.33203125 8.484375 Z M-21.33203125 8.484375 C-21.33203125 9.144375 -21.33203125 9.804375 -21.33203125 10.484375 C-10.77203125 10.484375 -0.21203125 10.484375 10.66796875 10.484375 C10.99796875 9.824375 11.32796875 9.164375 11.66796875 8.484375 C0.77796875 8.484375 -10.11203125 8.484375 -21.33203125 8.484375 Z M-19.33203125 16.484375 C-19.66203125 17.144375 -19.99203125 17.804375 -20.33203125 18.484375 C-19.34203125 18.484375 -18.35203125 18.484375 -17.33203125 18.484375 C-17.33203125 17.824375 -17.33203125 17.164375 -17.33203125 16.484375 C-17.99203125 16.484375 -18.65203125 16.484375 -19.33203125 16.484375 Z M-16.33203125 16.484375 C-16.33203125 17.144375 -16.33203125 17.804375 -16.33203125 18.484375 C-11.38203125 18.484375 -6.43203125 18.484375 -1.33203125 18.484375 C-5.31983127 16.49047499 -6.80350697 16.25750537 -11.08203125 16.359375 C-12.066875 16.37742187 -13.05171875 16.39546875 -14.06640625 16.4140625 C-14.8140625 16.43726562 -15.56171875 16.46046875 -16.33203125 16.484375 Z M-1.33203125 16.484375 C1.34439364 18.66927507 1.34439364 18.66927507 3.66796875 18.484375 C3.66796875 17.824375 3.66796875 17.164375 3.66796875 16.484375 C2.01796875 16.484375 0.36796875 16.484375 -1.33203125 16.484375 Z " fill="#F1DBBB" transform="translate(365.33203125,38.515625)"/>
<path d="M0 0 C2.31 0.33 4.62 0.66 7 1 C7 3.64 7 6.28 7 9 C6.34 9 5.68 9 5 9 C5 9.99 5 10.98 5 12 C4.34 12 3.68 12 3 12 C2.814375 13.2065625 2.814375 13.2065625 2.625 14.4375 C2.41875 15.283125 2.2125 16.12875 2 17 C1.01 17.495 1.01 17.495 0 18 C-1.02178143 19.72425617 -2.04130093 21.45082593 -3 23.2109375 C-3.91907273 24.85521605 -4.95510816 26.43266224 -6 28 C-6.66 28 -7.32 28 -8 28 C-8.103125 28.556875 -8.20625 29.11375 -8.3125 29.6875 C-9.34903245 33.17401826 -10.64235822 36.14381784 -13.79125977 38.12963867 C-17.98995348 39.78414769 -22.48118609 39.32695916 -26.9375 39.3125 C-27.92685547 39.32861328 -28.91621094 39.34472656 -29.93554688 39.36132812 C-38.88632749 39.36734748 -38.88632749 39.36734748 -43 36 C-42.3125 33.125 -42.3125 33.125 -41 30 C-38.375 28.625 -38.375 28.625 -36 28 C-36.33 27.01 -36.66 26.02 -37 25 C-32.52808139 21.46953794 -28.90637664 20.36047238 -23.26953125 19.58984375 C-20.64879118 18.90872198 -19.76161261 17.99855466 -18 16 C-15.8125 14.8125 -15.8125 14.8125 -14 14 C-15.32 13.34 -16.64 12.68 -18 12 C-18 11.34 -18 10.68 -18 10 C-19.32 9.67 -20.64 9.34 -22 9 C-22 8.34 -22 7.68 -22 7 C-17.05 7 -12.1 7 -7 7 C-7 6.34 -7 5.68 -7 5 C-6.360625 4.71125 -5.72125 4.4225 -5.0625 4.125 C-2.84793921 3.17176549 -2.84793921 3.17176549 -2 1 C-1.34 1 -0.68 1 0 1 C0 0.67 0 0.34 0 0 Z M-20 25 C-21.65 26.32 -23.3 27.64 -25 29 C-24.01 29 -23.02 29 -22 29 C-21.67 29.99 -21.34 30.98 -21 32 C-19.87483915 30.16715557 -19.87483915 30.16715557 -19 28 C-19.33 27.01 -19.66 26.02 -20 25 Z " fill="#EAB689" transform="translate(291,52)"/>
<path d="M0 0 C3.47914843 -0.0294191 6.95826417 -0.04693792 10.4375 -0.0625 C11.41138672 -0.07087891 12.38527344 -0.07925781 13.38867188 -0.08789062 C17.76414671 -0.10252432 22.04063611 -0.06200894 26.3828125 0.50390625 C32.3853277 1.26406774 38.39816323 1.06736572 44.4375 1 C46.7694858 0.97458326 49.10152446 0.95351879 51.43359375 0.9375 C52.45509521 0.92589844 53.47659668 0.91429687 54.52905273 0.90234375 C57 1 57 1 59 2 C58.67 3.32 58.34 4.64 58 6 C55.64741656 6.50866669 53.29338596 7.0070625 50.9375 7.5 C50.28072266 7.64308594 49.62394531 7.78617188 48.94726562 7.93359375 C44.55428093 8.84248714 40.50370408 9.04248777 36 9 C33.39570195 9.39424698 33.39570195 9.39424698 31.0625 10 C29.90427734 10.2784375 29.90427734 10.2784375 28.72265625 10.5625 C28.15417969 10.706875 27.58570313 10.85125 27 11 C27 11.66 27 12.32 27 13 C26.01 13.495 26.01 13.495 25 14 C24.53348793 16.12576782 24.53348793 16.12576782 24.375 18.5625 C24.30023438 19.38878906 24.22546875 20.21507813 24.1484375 21.06640625 C24.09945312 21.70449219 24.05046875 22.34257813 24 23 C16.0581193 25.76239329 7.88982155 26.18950233 0 23 C-1 20 -1 20 -1 17 C-1.66 16.34 -2.32 15.68 -3 15 C-2.34 14.34 -1.68 13.68 -1 13 C-1.33 12.01 -1.66 11.02 -2 10 C-1.66015625 7.51953125 -1.66015625 7.51953125 -1.0625 4.8125 C-0.86785156 3.91144531 -0.67320312 3.01039062 -0.47265625 2.08203125 C-0.31667969 1.39496094 -0.16070312 0.70789062 0 0 Z " fill="#E78F69" transform="translate(161,40)"/>
<path d="M0 0 C0.91330078 0.06574219 1.82660156 0.13148437 2.76757812 0.19921875 C4.99332069 0.36236218 7.21517638 0.54619354 9.4375 0.75 C10.29683044 4.52220788 10.25345503 6.97620796 9.4375 10.75 C9.9325 11.74 9.9325 11.74 10.4375 12.75 C10.16796875 14.87890625 10.16796875 14.87890625 9.625 17.3125 C9.45355469 18.11816406 9.28210938 18.92382812 9.10546875 19.75390625 C8.4375 21.75 8.4375 21.75 6.4375 22.75 C6.1075 23.74 5.7775 24.73 5.4375 25.75 C-3.27950174 25.89368684 -11.87570899 25.46961582 -20.5625 24.75 C-20.5625 23.76 -20.5625 22.77 -20.5625 21.75 C-19.5725 21.75 -18.5825 21.75 -17.5625 21.75 C-17.8925 21.13125 -18.2225 20.5125 -18.5625 19.875 C-19.5625 17.75 -19.5625 17.75 -19.5625 15.75 C-22.0375 14.76 -22.0375 14.76 -24.5625 13.75 C-23.5625 10.75 -23.5625 10.75 -21.5 9.5625 C-20.5409375 9.1603125 -20.5409375 9.1603125 -19.5625 8.75 C-19.5625 7.1 -19.5625 5.45 -19.5625 3.75 C-12.80213061 0.00973755 -7.62779721 -0.70513753 0 0 Z " fill="#DF6435" transform="translate(127.5625,39.25)"/>
<path d="M0 0 C0.66 0.66 1.32 1.32 2 2 C4.21072977 2.24253813 4.21072977 2.24253813 6.625 2.125 C7.44226563 2.10695312 8.25953125 2.08890625 9.1015625 2.0703125 C9.72804688 2.04710937 10.35453125 2.02390625 11 2 C11.33 1.34 11.66 0.68 12 0 C18.875 0.875 18.875 0.875 20 2 C22.69235776 2.23678716 25.36498156 2.42198025 28.0625 2.5625 C29.20041992 2.62727539 29.20041992 2.62727539 30.36132812 2.69335938 C32.24065438 2.79973633 34.12030244 2.90039934 36 3 C35.67 3.66 35.34 4.32 35 5 C37.31 5.33 39.62 5.66 42 6 C42 6.33 42 6.66 42 7 C40.35 7.33 38.7 7.66 37 8 C43.27 8 49.54 8 56 8 C55.67 9.98 55.34 11.96 55 14 C54.34 14 53.68 14 53 14 C53 14.66 53 15.32 53 16 C45.35923782 16.0694906 37.71850838 16.1228064 30.07750225 16.15543652 C26.52950064 16.17109693 22.98171513 16.19234151 19.43383789 16.22631836 C15.35561033 16.26513007 11.27760999 16.27970602 7.19921875 16.29296875 C5.92414963 16.30845261 4.64908051 16.32393646 3.33537292 16.33988953 C2.15437515 16.34011612 0.97337738 16.34034271 -0.2434082 16.34057617 C-1.80560844 16.35056892 -1.80560844 16.35056892 -3.39936829 16.36076355 C-6 16 -6 16 -7.85978699 14.60371399 C-9 13 -9 13 -9 11 C-4.05 9.515 -4.05 9.515 1 8 C1 7.34 1 6.68 1 6 C0.01 6 -0.98 6 -2 6 C-2.33 5.01 -2.66 4.02 -3 3 C-2.01 2.01 -1.02 1.02 0 0 Z M9 7 C8.67 7.66 8.34 8.32 8 9 C8.99 9 9.98 9 11 9 C11 8.34 11 7.68 11 7 C10.34 7 9.68 7 9 7 Z M12 7 C12 7.66 12 8.32 12 9 C16.95 9 21.9 9 27 9 C23.01219998 7.00609999 21.52852428 6.77313037 17.25 6.875 C16.26515625 6.89304687 15.2803125 6.91109375 14.265625 6.9296875 C13.51796875 6.95289063 12.7703125 6.97609375 12 7 Z M27 7 C29.67642489 9.18490007 29.67642489 9.18490007 32 9 C32 8.34 32 7.68 32 7 C30.35 7 28.7 7 27 7 Z " fill="#EDD2A1" transform="translate(337,48)"/>
<path d="M0 0 C3.375 -0.125 3.375 -0.125 7 0 C7.66 0.66 8.32 1.32 9 2 C8.01 2 7.02 2 6 2 C6 2.66 6 3.32 6 4 C7.65 4 9.3 4 11 4 C11.66 2.68 12.32 1.36 13 0 C13.66 0 14.32 0 15 0 C15 0.66 15 1.32 15 2 C18.96 1.34 22.92 0.68 27 0 C26.360625 0.928125 25.72125 1.85625 25.0625 2.8125 C21.86592342 7.75266381 22.03293838 10.30508154 23 16 C23.99 16.33 24.98 16.66 26 17 C26 17.66 26 18.32 26 19 C24.68 19 23.36 19 22 19 C21.7525 19.639375 21.505 20.27875 21.25 20.9375 C20 23 20 23 18.36328125 23.62109375 C15.20137528 24.12804396 12.13887684 24.13173265 8.9375 24.125 C7.09478516 24.12886719 7.09478516 24.12886719 5.21484375 24.1328125 C2 24 2 24 -1 23 C-3.3125 20.3125 -3.3125 20.3125 -5 17 C-4.375 14 -4.375 14 -3 11 C-1.73147698 7.34366895 -0.67296039 3.8134422 0 0 Z " fill="#68120B" transform="translate(7,42)"/>
<path d="M0 0 C0 0.66 0 1.32 0 2 C-0.99 2 -1.98 2 -3 2 C-3 2.99 -3 3.98 -3 5 C-1.68 4.67 -0.36 4.34 1 4 C1 3.01 1 2.02 1 1 C5 1 9 1 13 1 C13.33 1.66 13.66 2.32 14 3 C14.66 3 15.32 3 16 3 C16 2.34 16 1.68 16 1 C16.66 1 17.32 1 18 1 C18.495 2.485 18.495 2.485 19 4 C17.58366664 4.16947579 16.16691467 4.33545507 14.75 4.5 C13.56664062 4.63921875 13.56664062 4.63921875 12.359375 4.78125 C10 5 10 5 6 5 C6.2475 5.8971875 6.2475 5.8971875 6.5 6.8125 C7.5197315 11.27382533 6.29583458 14.70754794 5 19 C7.64 19 10.28 19 13 19 C12.67 19.99 12.34 20.98 12 22 C2.58997722 22.18451025 2.58997722 22.18451025 -2 21 C-2 21.33 -2 21.66 -2 22 C-6.95 22 -11.9 22 -17 22 C-16.19838392 17.19030352 -15.21539644 12.69953288 -14 8 C-13.34 8 -12.68 8 -12 8 C-11.67 5.69 -11.34 3.38 -11 1 C-7.26513121 0.4254048 -3.78706732 0 0 0 Z " fill="#ECAD82" transform="translate(251,40)"/>
<path d="M0 0 C3.47914843 -0.0294191 6.95826417 -0.04693792 10.4375 -0.0625 C11.41138672 -0.07087891 12.38527344 -0.07925781 13.38867188 -0.08789062 C17.76414671 -0.10252432 22.04063611 -0.06200894 26.3828125 0.50390625 C32.3853277 1.26406774 38.39816323 1.06736572 44.4375 1 C46.7694858 0.97458326 49.10152446 0.95351879 51.43359375 0.9375 C52.45509521 0.92589844 53.47659668 0.91429687 54.52905273 0.90234375 C57 1 57 1 59 2 C58.67 3.32 58.34 4.64 58 6 C55.64741656 6.50866669 53.29338596 7.0070625 50.9375 7.5 C50.28072266 7.64308594 49.62394531 7.78617188 48.94726562 7.93359375 C44.55428093 8.84248714 40.50370408 9.04248777 36 9 C33.39570195 9.39424698 33.39570195 9.39424698 31.0625 10 C29.90427734 10.2784375 29.90427734 10.2784375 28.72265625 10.5625 C28.15417969 10.706875 27.58570313 10.85125 27 11 C27 11.66 27 12.32 27 13 C26.01 13.495 26.01 13.495 25 14 C24.53348793 16.12576782 24.53348793 16.12576782 24.375 18.5625 C24.30023438 19.38878906 24.22546875 20.21507813 24.1484375 21.06640625 C24.09945312 21.70449219 24.05046875 22.34257813 24 23 C17.25 25 17.25 25 15 25 C15 24.34 15 23.68 15 23 C17.90600261 21.74335022 19.79604584 21 23 21 C23 19.68 23 18.36 23 17 C22.2575 17.020625 21.515 17.04125 20.75 17.0625 C18.29537721 17.00671312 16.33890739 16.6930096 14 16 C14 15.34 14 14.68 14 14 C15.051875 14.103125 16.10375 14.20625 17.1875 14.3125 C21.0763298 14.42136742 21.0763298 14.42136742 23.125 11.75 C27.58240182 7.48639826 33.13153647 6.53800142 39 5 C38.14728516 4.90912109 38.14728516 4.90912109 37.27734375 4.81640625 C36.50519531 4.73261719 35.73304688 4.64882813 34.9375 4.5625 C34.18339844 4.48128906 33.42929688 4.40007813 32.65234375 4.31640625 C30.69039295 4.0823591 28.73369531 3.80329247 26.78125 3.5 C22.37494636 2.91734828 17.99917189 2.65557976 13.5625 2.4375 C12.73556641 2.39431641 11.90863281 2.35113281 11.05664062 2.30664062 C9.03790451 2.20161967 7.01897049 2.10041441 5 2 C5 2.66 5 3.32 5 4 C5.99 4 6.98 4 8 4 C8.33 4.99 8.66 5.98 9 7 C7.68 7.33 6.36 7.66 5 8 C5.66 8.66 6.32 9.32 7 10 C5.35 9.67 3.7 9.34 2 9 C2.309375 9.928125 2.309375 9.928125 2.625 10.875 C2.74875 11.57625 2.8725 12.2775 3 13 C2.34 13.66 1.68 14.32 1 15 C1.78375 14.79375 2.5675 14.5875 3.375 14.375 C4.674375 14.189375 4.674375 14.189375 6 14 C6.66 14.66 7.32 15.32 8 16 C7.360625 16.28875 6.72125 16.5775 6.0625 16.875 C3.84793921 17.82823451 3.84793921 17.82823451 3 20 C3.99 20.33 4.98 20.66 6 21 C6 21.99 6 22.98 6 24 C4.35 24 2.7 24 1 24 C-0.4606285 21.35261084 -1 20.10551666 -1 17 C-1.66 16.34 -2.32 15.68 -3 15 C-2.34 14.34 -1.68 13.68 -1 13 C-1.33 12.01 -1.66 11.02 -2 10 C-1.66015625 7.51953125 -1.66015625 7.51953125 -1.0625 4.8125 C-0.86785156 3.91144531 -0.67320312 3.01039062 -0.47265625 2.08203125 C-0.31667969 1.39496094 -0.16070312 0.70789062 0 0 Z " fill="#EBB284" transform="translate(161,40)"/>
<path d="M0 0 C0.66 0 1.32 0 2 0 C2 2.64 2 5.28 2 8 C2.99 8.33 3.98 8.66 5 9 C4.67 11.31 4.34 13.62 4 16 C1.36 16.99 -1.28 17.98 -4 19 C-3.34 19.33 -2.68 19.66 -2 20 C-2 20.66 -2 21.32 -2 22 C-3.65 22 -5.3 22 -7 22 C-7 22.66 -7 23.32 -7 24 C-10.22791555 26.1519437 -11.28400809 26.20086443 -15 26 C-15.33 26.66 -15.66 27.32 -16 28 C-16.99 28 -17.98 28 -19 28 C-19 21.07 -19 14.14 -19 7 C-15 6 -15 6 -12 7 C-12 6.34 -12 5.68 -12 5 C-11.113125 5.04125 -10.22625 5.0825 -9.3125 5.125 C-5.98134553 4.99929606 -3.91569068 4.58280351 -1 3 C-0.67 2.01 -0.34 1.02 0 0 Z " fill="#EA6F43" transform="translate(86,13)"/>
<path d="M0 0 C2.31 0 4.62 0 7 0 C7 1.32 7 2.64 7 4 C7.99 4 8.98 4 10 4 C9.85890014 6.10448938 9.71195825 8.2085877 9.5625 10.3125 C9.48128906 11.48425781 9.40007812 12.65601563 9.31640625 13.86328125 C9 17 9 17 8 20 C8.66 20 9.32 20 10 20 C9.3125 21.9375 9.3125 21.9375 8 24 C5.375 24.75 5.375 24.75 3 25 C2.67 26.32 2.34 27.64 2 29 C0.58344207 29.0272415 -0.83327045 29.04650467 -2.25 29.0625 C-3.43335937 29.07990234 -3.43335937 29.07990234 -4.640625 29.09765625 C-6.90691002 29.00385306 -8.8288895 28.63241063 -11 28 C-11 27.34 -11 26.68 -11 26 C-11.99 26 -12.98 26 -14 26 C-13.9375 23.75 -13.9375 23.75 -13 21 C-9.9301813 18.52994022 -7.00503984 17 -3 17 C-3.33 16.01 -3.66 15.02 -4 14 C2.75 14.875 2.75 14.875 5 16 C5.33 15.34 5.66 14.68 6 14 C5.01 13.67 4.02 13.34 3 13 C3.33 12.01 3.66 11.02 4 10 C1.03 10 -1.94 10 -5 10 C-5 8.68 -5 7.36 -5 6 C-5.99 6 -6.98 6 -8 6 C-8 5.34 -8 4.68 -8 4 C-6.8553125 3.7834375 -6.8553125 3.7834375 -5.6875 3.5625 C-2.91827092 3.0367406 -2.91827092 3.0367406 0 2 C0 1.34 0 0.68 0 0 Z " fill="#E05F36" transform="translate(80,36)"/>
<path d="M0 0 C1.4420681 0.12092814 2.87941629 0.29886544 4.3125 0.5 C10.30091548 1.18463795 16.02992595 0.66676085 22 0 C22 0.66 22 1.32 22 2 C22.72590332 1.97381592 23.45180664 1.94763184 24.19970703 1.9206543 C27.50791541 1.8163319 30.8157772 1.75156128 34.125 1.6875 C35.83816406 1.6246582 35.83816406 1.6246582 37.5859375 1.56054688 C47.08816964 1.42243304 47.08816964 1.42243304 50.8046875 4.51953125 C51.52914062 5.33808594 52.25359375 6.15664063 53 7 C52.34 7.99 51.68 8.98 51 10 C49.92234375 9.84015625 48.8446875 9.6803125 47.734375 9.515625 C42.24472166 8.83365044 36.77595937 8.77815775 31.25 8.75 C30.22261719 8.729375 29.19523437 8.70875 28.13671875 8.6875 C27.14800781 8.68234375 26.15929688 8.6771875 25.140625 8.671875 C24.24891602 8.6625293 23.35720703 8.65318359 22.43847656 8.64355469 C19.54443719 9.06659208 18.16903853 10.08836919 16 12 C16.474375 13.051875 16.94875 14.10375 17.4375 15.1875 C18.69323741 18.10175851 19.52234381 20.84746914 20 24 C19.34 24.33 18.68 24.66 18 25 C17.34 24.34 16.68 23.68 16 23 C16.66 23 17.32 23 18 23 C17.5359375 22.59394531 17.071875 22.18789063 16.59375 21.76953125 C13.8331084 18.70440712 13.013877 15.0798376 13 11 C14.34782675 8.38924896 15.80613212 7.03716303 18 5 C15.36 5 12.72 5 10 5 C9.67 5.66 9.34 6.32 9 7 C8.34 6.67 7.68 6.34 7 6 C7 5.34 7 4.68 7 4 C4.48916886 5.25541557 4.12874554 6.50063488 3 9 C1.02 9 -0.96 9 -3 9 C-2.34 7.68 -1.68 6.36 -1 5 C-3.31 4.67 -5.62 4.34 -8 4 C-8 5.65 -8 7.3 -8 9 C-8.66 9 -9.32 9 -10 9 C-10 7.02 -10 5.04 -10 3 C-9.04287109 2.80083984 -9.04287109 2.80083984 -8.06640625 2.59765625 C-7.24011719 2.42105469 -6.41382813 2.24445312 -5.5625 2.0625 C-4.73878906 1.88847656 -3.91507813 1.71445312 -3.06640625 1.53515625 C-1.02338796 1.19247006 -1.02338796 1.19247006 0 0 Z " fill="#D44824" transform="translate(15,38)"/>
<path d="M0 0 C0.91330078 0.06574219 1.82660156 0.13148437 2.76757812 0.19921875 C4.99332069 0.36236218 7.21517638 0.54619354 9.4375 0.75 C10.29683044 4.52220788 10.25345503 6.97620796 9.4375 10.75 C9.9325 11.74 9.9325 11.74 10.4375 12.75 C10.16796875 14.87890625 10.16796875 14.87890625 9.625 17.3125 C9.45355469 18.11816406 9.28210938 18.92382812 9.10546875 19.75390625 C8.4375 21.75 8.4375 21.75 6.4375 22.75 C6.1075 23.74 5.7775 24.73 5.4375 25.75 C-3.27950174 25.89368684 -11.87570899 25.46961582 -20.5625 24.75 C-20.5625 23.76 -20.5625 22.77 -20.5625 21.75 C-19.5725 21.75 -18.5825 21.75 -17.5625 21.75 C-17.8925 21.13125 -18.2225 20.5125 -18.5625 19.875 C-19.5625 17.75 -19.5625 17.75 -19.5625 15.75 C-22.0375 14.76 -22.0375 14.76 -24.5625 13.75 C-23.5625 10.75 -23.5625 10.75 -21.5 9.5625 C-20.5409375 9.1603125 -20.5409375 9.1603125 -19.5625 8.75 C-19.5625 7.1 -19.5625 5.45 -19.5625 3.75 C-12.80213061 0.00973755 -7.62779721 -0.70513753 0 0 Z M-7.5625 2.75 C-7.5625 3.74 -7.5625 4.73 -7.5625 5.75 C-6.9025 5.75 -6.2425 5.75 -5.5625 5.75 C-7.5625 7.75 -7.5625 7.75 -10.5625 8.75 C-10.5625 7.1 -10.5625 5.45 -10.5625 3.75 C-12.5425 4.08 -14.5225 4.41 -16.5625 4.75 C-16.5625 7.06 -16.5625 9.37 -16.5625 11.75 C-18.8725 12.08 -21.1825 12.41 -23.5625 12.75 C-23.5625 13.08 -23.5625 13.41 -23.5625 13.75 C-21.2525 13.75 -18.9425 13.75 -16.5625 13.75 C-16.2325 16.72 -15.9025 19.69 -15.5625 22.75 C-11.9325 22.75 -8.3025 22.75 -4.5625 22.75 C-4.5625 23.41 -4.5625 24.07 -4.5625 24.75 C-2.9125 24.75 -1.2625 24.75 0.4375 24.75 C0.4375 24.09 0.4375 23.43 0.4375 22.75 C2.0875 22.75 3.7375 22.75 5.4375 22.75 C5.1075 21.76 4.7775 20.77 4.4375 19.75 C3.7775 19.75 3.1175 19.75 2.4375 19.75 C2.4375 18.76 2.4375 17.77 2.4375 16.75 C3.4275 16.42 4.4175 16.09 5.4375 15.75 C4.7775 14.76 4.1175 13.77 3.4375 12.75 C5.0875 11.1 6.7375 9.45 8.4375 7.75 C7.4475 5.77 6.4575 3.79 5.4375 1.75 C1.01278444 1.61172764 -3.18676048 2.15667939 -7.5625 2.75 Z " fill="#E59E62" transform="translate(127.5625,39.25)"/>
<path d="M0 0 C6.875 0.875 6.875 0.875 8 2 C10.69235776 2.23678716 13.36498156 2.42198025 16.0625 2.5625 C17.20041992 2.62727539 17.20041992 2.62727539 18.36132812 2.69335938 C20.24065438 2.79973633 22.12030244 2.90039934 24 3 C23.67 3.66 23.34 4.32 23 5 C25.31 5.33 27.62 5.66 30 6 C30 6.33 30 6.66 30 7 C28.35 7.33 26.7 7.66 25 8 C27.97 8.495 27.97 8.495 31 9 C31 9.33 31 9.66 31 10 C33.97 10 36.94 10 40 10 C40.495 10.99 40.495 10.99 41 12 C40.34 12.66 39.68 13.32 39 14 C36.72265625 13.9765625 36.72265625 13.9765625 34.0625 13.625 C31.32116393 13.27779101 28.76815614 13 26 13 C20.33333333 13 14.66666667 13 9 13 C9 12.34 9 11.68 9 11 C7.35 11 5.7 11 4 11 C4 10.34 4 9.68 4 9 C7.465 8.505 7.465 8.505 11 8 C10.05125 8.020625 9.1025 8.04125 8.125 8.0625 C5 8 5 8 3 7 C3 6.01 3 5.02 3 4 C1.68 3.34 0.36 2.68 -1 2 C-0.67 1.34 -0.34 0.68 0 0 Z M15 7 C17.67642489 9.18490007 17.67642489 9.18490007 20 9 C20 8.34 20 7.68 20 7 C18.35 7 16.7 7 15 7 Z " fill="#EDCBA6" transform="translate(349,48)"/>
<path d="M0 0 C0.66 0.33 1.32 0.66 2 1 C2 1.66 2 2.32 2 3 C1.195625 3.12375 0.39125 3.2475 -0.4375 3.375 C-1.283125 3.58125 -2.12875 3.7875 -3 4 C-3.33 4.66 -3.66 5.32 -4 6 C-4.66 6 -5.32 6 -6 6 C-6 6.99 -6 7.98 -6 9 C-5.01 9.33 -4.02 9.66 -3 10 C-3 10.99 -3 11.98 -3 13 C-0.69 12.34 1.62 11.68 4 11 C4 11.66 4 12.32 4 13 C4.66 13 5.32 13 6 13 C5.67 13.99 5.34 14.98 5 16 C1.62805013 16.42542453 -1.74737898 16.8099749 -5.125 17.1875 C-6.07632812 17.30802734 -7.02765625 17.42855469 -8.0078125 17.55273438 C-13.58451721 18.15300467 -17.13370654 18.25238805 -22 15 C-21.67 14.01 -21.34 13.02 -21 12 C-20.01 12 -19.02 12 -18 12 C-17.67 11.01 -17.34 10.02 -17 9 C-16.01 9 -15.02 9 -14 9 C-14 8.34 -14 7.68 -14 7 C-13.34 7 -12.68 7 -12 7 C-12 7.66 -12 8.32 -12 9 C-11.34 8.34 -10.68 7.68 -10 7 C-10.66 6.67 -11.32 6.34 -12 6 C-12 5.34 -12 4.68 -12 4 C-4.58181818 -0.65454545 -4.58181818 -0.65454545 0 0 Z " fill="#EDA37C" transform="translate(270,73)"/>
<path d="M0 0 C6.52339826 0.7293823 13.03263875 0.72078387 19.58764648 0.70068359 C21.68936221 0.69527757 23.79086848 0.70068389 25.89257812 0.70703125 C27.24349005 0.70637113 28.59440185 0.70509135 29.9453125 0.703125 C31.75866089 0.70143311 31.75866089 0.70143311 33.60864258 0.69970703 C36.79868022 0.66227595 36.79868022 0.66227595 39.6081543 -0.00048828 C41.86328125 -0.4296875 41.86328125 -0.4296875 44.86328125 0.5703125 C46.42181392 0.78834557 47.98510776 0.97397606 49.55078125 1.1328125 C50.76314453 1.25849609 50.76314453 1.25849609 52 1.38671875 C52.61488281 1.44730469 53.22976563 1.50789063 53.86328125 1.5703125 C53.53328125 2.2303125 53.20328125 2.8903125 52.86328125 3.5703125 C52.05503906 3.55871094 51.24679687 3.54710937 50.4140625 3.53515625 C48.81111328 3.52162109 48.81111328 3.52162109 47.17578125 3.5078125 C46.12003906 3.49621094 45.06429687 3.48460937 43.9765625 3.47265625 C41.12988114 3.56194989 38.63641961 3.97071502 35.86328125 4.5703125 C33.86363715 4.60804163 31.86274064 4.61681156 29.86328125 4.5703125 C29.86328125 3.9103125 29.86328125 3.2503125 29.86328125 2.5703125 C28.13382472 2.71266707 26.40472471 2.85935632 24.67578125 3.0078125 C23.71285156 3.08902344 22.74992187 3.17023437 21.7578125 3.25390625 C18.87853034 3.52227029 18.87853034 3.52227029 16.14453125 4.1328125 C13.68403378 4.60468873 12.21645182 4.35470269 9.86328125 3.5703125 C9.86328125 4.5603125 9.86328125 5.5503125 9.86328125 6.5703125 C8.21328125 7.2303125 6.56328125 7.8903125 4.86328125 8.5703125 C5.19328125 7.2503125 5.52328125 5.9303125 5.86328125 4.5703125 C6.85328125 4.5703125 7.84328125 4.5703125 8.86328125 4.5703125 C8.86328125 3.9103125 8.86328125 3.2503125 8.86328125 2.5703125 C8.34765625 2.7353125 7.83203125 2.9003125 7.30078125 3.0703125 C4.12964249 3.7208025 1.09109791 3.6323859 -2.13671875 3.5703125 C-2.46671875 5.8803125 -2.79671875 8.1903125 -3.13671875 10.5703125 C-3.79671875 10.5703125 -4.45671875 10.5703125 -5.13671875 10.5703125 C-5.07484375 11.3953125 -5.01296875 12.2203125 -4.94921875 13.0703125 C-5.18396537 17.45224946 -6.46290529 20.52526332 -8.13671875 24.5703125 C-6.15671875 24.5703125 -4.17671875 24.5703125 -2.13671875 24.5703125 C-2.13671875 25.2303125 -2.13671875 25.8903125 -2.13671875 26.5703125 C-4.44671875 26.5703125 -6.75671875 26.5703125 -9.13671875 26.5703125 C-9.46671875 25.5803125 -9.79671875 24.5903125 -10.13671875 23.5703125 C-10.79671875 23.2403125 -11.45671875 22.9103125 -12.13671875 22.5703125 C-11.47671875 21.9103125 -10.81671875 21.2503125 -10.13671875 20.5703125 C-9.49419525 18.50157216 -9.49419525 18.50157216 -9.13671875 16.5703125 C-8.47671875 16.5703125 -7.81671875 16.5703125 -7.13671875 16.5703125 C-7.15734375 15.4771875 -7.17796875 14.3840625 -7.19921875 13.2578125 C-7.13671875 9.5703125 -7.13671875 9.5703125 -6.13671875 6.5703125 C-6.79671875 6.2403125 -7.45671875 5.9103125 -8.13671875 5.5703125 C-8.13671875 4.9103125 -8.13671875 4.2503125 -8.13671875 3.5703125 C-7.47671875 3.2403125 -6.81671875 2.9103125 -6.13671875 2.5703125 C-6.13671875 1.9103125 -6.13671875 1.2503125 -6.13671875 0.5703125 C-3.68534291 -0.65537542 -2.69286703 -0.3648933 0 0 Z " fill="#EFC8A6" transform="translate(242.13671875,37.4296875)"/>
<path d="M0 0 C1.98 0 3.96 0 6 0 C6 0.99 6 1.98 6 3 C6.66 2.67 7.32 2.34 8 2 C9.59447464 1.91599471 11.19240545 1.89272533 12.7890625 1.90234375 C13.73007812 1.90556641 14.67109375 1.90878906 15.640625 1.91210938 C16.62546875 1.92048828 17.6103125 1.92886719 18.625 1.9375 C19.61757813 1.94201172 20.61015625 1.94652344 21.6328125 1.95117188 C24.0886016 1.96297855 26.54427104 1.979446 29 2 C29 1.34 29 0.68 29 0 C29.99 0 30.98 0 32 0 C32 0.99 32 1.98 32 3 C32.66 3 33.32 3 34 3 C34.625 6.375 34.625 6.375 35 10 C33 12 33 12 30.5625 12.125 C29.716875 12.08375 28.87125 12.0425 28 12 C24.25838897 12 20.71046443 12.51338171 17 13 C17 12.01 17 11.02 17 10 C18.32 10 19.64 10 21 10 C21.33 8.35 21.66 6.7 22 5 C20.35 4.34 18.7 3.68 17 3 C17 3.66 17 4.32 17 5 C12.05 5 7.1 5 2 5 C2 4.34 2 3.68 2 3 C1.01 2.67 0.02 2.34 -1 2 C-0.67 1.34 -0.34 0.68 0 0 Z " fill="#EBD6A8" transform="translate(358,40)"/>
<path d="M0 0 C3.875 1.75 3.875 1.75 5 4 C5.33 3.67 5.66 3.34 6 3 C7.51928038 2.92820036 9.04167482 2.91607993 10.5625 2.9375 C11.38878906 2.94652344 12.21507812 2.95554688 13.06640625 2.96484375 C13.70449219 2.97644531 14.34257812 2.98804688 15 3 C14.67 4.32 14.34 5.64 14 7 C16.64 7.66 19.28 8.32 22 9 C22 10.32 22 11.64 22 13 C16.54873741 15.23891142 11.86809507 16.47606294 6 17 C5.566875 16.0409375 5.566875 16.0409375 5.125 15.0625 C4.17176549 12.84793921 4.17176549 12.84793921 2 12 C2.66 10.68 3.32 9.36 4 8 C3.34 8 2.68 8 2 8 C1.01 7.67 0.02 7.34 -1 7 C-0.34 6.01 0.32 5.02 1 4 C0.69159401 1.84725052 0.69159401 1.84725052 0 0 Z " fill="#E59053" transform="translate(162,48)"/>
<path d="M0 0 C3.375 -0.125 3.375 -0.125 7 0 C7.66 0.66 8.32 1.32 9 2 C8.01 2 7.02 2 6 2 C6 2.66 6 3.32 6 4 C7.65 4 9.3 4 11 4 C11.66 2.68 12.32 1.36 13 0 C13.66 0 14.32 0 15 0 C15 0.66 15 1.32 15 2 C18.96 1.34 22.92 0.68 27 0 C26.360625 0.928125 25.72125 1.85625 25.0625 2.8125 C22.35667724 6.94624532 22.35667724 6.94624532 22.4375 11.6875 C22.623125 12.450625 22.80875 13.21375 23 14 C21.18641846 13.52494322 19.37415821 13.04483958 17.5625 12.5625 C16.55316406 12.29566406 15.54382813 12.02882813 14.50390625 11.75390625 C12 11 12 11 11 10 C9.65252916 9.76924918 8.29622435 9.58846937 6.9375 9.4375 C5.638125 9.293125 4.33875 9.14875 3 9 C3 8.01 3 7.02 3 6 C2.01 5.67 1.02 5.34 0 5 C0 3.35 0 1.7 0 0 Z " fill="#B11902" transform="translate(7,42)"/>
<path d="M0 0 C-0.13784912 0.63454102 -0.27569824 1.26908203 -0.41772461 1.92285156 C-1.95344265 9.55141617 -2.38616933 16.98284886 -2.5625 24.75 C-2.73802038 31.58409123 -2.93982966 38.24493237 -4 45 C-3.7018576 46.34164079 -3.37756808 47.67851173 -3 49 C-4 52 -4 52 -6.9375 53.6875 C-10 55 -10 55 -12 55 C-12 53.68 -12 52.36 -12 51 C-11.21625 50.731875 -10.4325 50.46375 -9.625 50.1875 C-6.71885077 49.15185568 -6.71885077 49.15185568 -5 46 C-5.66 46 -6.32 46 -7 46 C-6.73676724 41.03766007 -6.47011824 36.0755192 -6.20043945 31.11352539 C-6.10935376 29.42900438 -6.01916671 27.74443451 -5.92993164 26.05981445 C-5.80076312 23.6243744 -5.66825566 21.18913427 -5.53515625 18.75390625 C-5.47727684 17.64239952 -5.47727684 17.64239952 -5.41822815 16.50843811 C-5.1620658 11.89315874 -4.71503827 7.34100297 -4.10227966 2.75865173 C-4.06852737 2.17829666 -4.03477509 1.59794159 -4 1 C-5.09631369 -0.32131818 -5.09631369 -0.32131818 -7.8125 -0.125 C-10.86124751 -0.11765358 -10.86124751 -0.11765358 -13.1875 0.5625 C-15 1 -15 1 -18 0 C-18.33 1.32 -18.66 2.64 -19 4 C-20.32 4.33 -21.64 4.66 -23 5 C-23 3.68 -23 2.36 -23 1 C-23.66 0.34 -24.32 -0.32 -25 -1 C-23.80375 -1.144375 -22.6075 -1.28875 -21.375 -1.4375 C-18.87234814 -1.74045259 -16.47205513 -2.10998851 -14 -2.625 C-8.8583174 -3.26771032 -4.40183354 -2.93455569 0 0 Z " fill="#E19A66" transform="translate(95,10)"/>
<path d="M0 0 C2.31 0.33 4.62 0.66 7 1 C7 3.64 7 6.28 7 9 C6.34 9 5.68 9 5 9 C5 9.99 5 10.98 5 12 C1.125 13 1.125 13 0 13 C-0.556875 13.226875 -1.11375 13.45375 -1.6875 13.6875 C-4 14 -4 14 -6.75 12.5 C-11.07743528 10.50272218 -13.38065098 11.12391656 -18 12 C-18 11.34 -18 10.68 -18 10 C-19.32 9.67 -20.64 9.34 -22 9 C-22 8.34 -22 7.68 -22 7 C-17.05 7 -12.1 7 -7 7 C-7 6.34 -7 5.68 -7 5 C-6.360625 4.71125 -5.72125 4.4225 -5.0625 4.125 C-2.84793921 3.17176549 -2.84793921 3.17176549 -2 1 C-1.34 1 -0.68 1 0 1 C0 0.67 0 0.34 0 0 Z " fill="#E2AC82" transform="translate(291,52)"/>
<path d="M0 0 C0.99 2.31 1.98 4.62 3 7 C1.35 8.32 -0.3 9.64 -2 11 C-1.34 12.32 -0.68 13.64 0 15 C-4.51617599 15.07654536 -8.59085217 15.10228696 -13 14 C-13 13.34 -13 12.68 -13 12 C-13.99 11.67 -14.98 11.34 -16 11 C-14.35 8.69 -12.7 6.38 -11 4 C-11.66 4 -12.32 4 -13 4 C-13 3.01 -13 2.02 -13 1 C-8.62426048 0.40667939 -4.42471556 -0.13827236 0 0 Z " fill="#E7774F" transform="translate(133,41)"/>
<path d="M0 0 C0.66 0.66 1.32 1.32 2 2 C1.9765625 4.6015625 1.9765625 4.6015625 1.625 7.625 C1.45871094 9.12933594 1.45871094 9.12933594 1.2890625 10.6640625 C1.14597656 11.82035156 1.14597656 11.82035156 1 13 C-1.31 13 -3.62 13 -6 13 C-4.68 12.67 -3.36 12.34 -2 12 C-2.33 11.01 -2.66 10.02 -3 9 C-2.5625 6.3125 -2.5625 6.3125 -2 4 C-2.66 4 -3.32 4 -4 4 C-4.0928125 4.928125 -4.0928125 4.928125 -4.1875 5.875 C-5 8 -5 8 -7.1875 9.3125 C-10.4644831 10.11354031 -12.73981048 9.75818361 -16 9 C-15.67 9.99 -15.34 10.98 -15 12 C-17.38564077 11.42415568 -19.66682784 10.77772405 -22 10 C-21.67 7.36 -21.34 4.72 -21 2 C-19.68 1.67 -18.36 1.34 -17 1 C-16.67 2.32 -16.34 3.64 -16 5 C-15.34 4.67 -14.68 4.34 -14 4 C-13.67 3.01 -13.34 2.02 -13 1 C-8.63182208 0.30109153 -4.426216 -0.30880577 0 0 Z " fill="#E76B40" transform="translate(90,9)"/>
<path d="M0 0 C1.47906892 -0.02689216 2.95827483 -0.04634621 4.4375 -0.0625 C5.26121094 -0.07410156 6.08492188 -0.08570313 6.93359375 -0.09765625 C9 0 9 0 10 1 C11.49738124 1.0979057 12.99942892 1.12974864 14.5 1.125 C15.3146875 1.12757812 16.129375 1.13015625 16.96875 1.1328125 C18.99530377 1.2245178 18.99530377 1.2245178 20 0 C22.18639453 -0.07258946 24.37500389 -0.08373783 26.5625 -0.0625 C28.35880859 -0.04896484 28.35880859 -0.04896484 30.19140625 -0.03515625 C31.11824219 -0.02355469 32.04507813 -0.01195312 33 0 C33 0.66 33 1.32 33 2 C34.98 2 36.96 2 39 2 C39.495 4.475 39.495 4.475 40 7 C39.4225 6.79375 38.845 6.5875 38.25 6.375 C35.44531206 5.90755201 34.44228447 6.66068271 32 8 C31.01 8 30.02 8 29 8 C28.34 6.68 27.68 5.36 27 4 C24.58239124 4.11426509 22.16652782 4.24099661 19.75 4.375 C19.06808594 4.4059375 18.38617188 4.436875 17.68359375 4.46875 C13.94268211 4.68666718 11.26052808 5.18531695 8 7 C5.66666667 7 3.33333333 7 1 7 C-1.83810159 7.8032363 -4.36747743 8.68373871 -7 10 C-6.67 8.35 -6.34 6.7 -6 5 C-2.04 4.34 1.92 3.68 6 3 C6 2.34 6 1.68 6 1 C5.34 1 4.68 1 4 1 C4 1.66 4 2.32 4 3 C2.68 3 1.36 3 0 3 C0 2.01 0 1.02 0 0 Z " fill="#F0BB8F" transform="translate(263,40)"/>
<path d="M0 0 C0.99 0.33 1.98 0.66 3 1 C3 1.99 3 2.98 3 4 C4.19625 3.95875 5.3925 3.9175 6.625 3.875 C10.45291895 3.875 13.42032813 4.56813125 17 6 C17.94875 6.37125 18.8975 6.7425 19.875 7.125 C20.57625 7.41375 21.2775 7.7025 22 8 C21.67 8.99 21.34 9.98 21 11 C20.34 11 19.68 11 19 11 C19 10.34 19 9.68 19 9 C18.34 8.67 17.68 8.34 17 8 C17.66 9.65 18.32 11.3 19 13 C18 14 18 14 15.625 14.125 C13 14 13 14 10 13 C7.83284443 13.87483915 7.83284443 13.87483915 6 15 C6 14.34 6 13.68 6 13 C4.68 13 3.36 13 2 13 C0.68 13 -0.64 13 -2 13 C-2 11.02 -2 9.04 -2 7 C-1.34 7 -0.68 7 0 7 C0 4.69 0 2.38 0 0 Z " fill="#69120D" transform="translate(7,47)"/>
<path d="M0 0 C1.4420681 0.12092814 2.87941629 0.29886544 4.3125 0.5 C10.30091548 1.18463795 16.02992595 0.66676085 22 0 C22 0.66 22 1.32 22 2 C23.98 2 25.96 2 28 2 C27.67 3.65 27.34 5.3 27 7 C23.7 7.33 20.4 7.66 17 8 C17.33 7.01 17.66 6.02 18 5 C15.36 5 12.72 5 10 5 C9.67 5.66 9.34 6.32 9 7 C8.34 6.67 7.68 6.34 7 6 C7 5.34 7 4.68 7 4 C4.48916886 5.25541557 4.12874554 6.50063488 3 9 C1.02 9 -0.96 9 -3 9 C-2.34 7.68 -1.68 6.36 -1 5 C-3.31 4.67 -5.62 4.34 -8 4 C-8 5.65 -8 7.3 -8 9 C-8.66 9 -9.32 9 -10 9 C-10 7.02 -10 5.04 -10 3 C-9.04287109 2.80083984 -9.04287109 2.80083984 -8.06640625 2.59765625 C-7.24011719 2.42105469 -6.41382813 2.24445312 -5.5625 2.0625 C-4.73878906 1.88847656 -3.91507813 1.71445312 -3.06640625 1.53515625 C-1.02338796 1.19247006 -1.02338796 1.19247006 0 0 Z " fill="#C5290A" transform="translate(15,38)"/>
<path d="M0 0 C0 0.66 0 1.32 0 2 C-7.59 2.33 -15.18 2.66 -23 3 C-23.495 2.01 -23.495 2.01 -24 1 C-26.52733235 0.34444881 -26.52733235 0.34444881 -29 0 C-29.33 0.99 -29.66 1.98 -30 3 C-30.99 3 -31.98 3 -33 3 C-33 2.01 -33 1.02 -33 0 C-35.97 0 -38.94 0 -42 0 C-42.33 0.66 -42.66 1.32 -43 2 C-46 4 -46 4 -49 4 C-49 3.34 -49 2.68 -49 2 C-49.66 2.66 -50.32 3.32 -51 4 C-51 4.66 -51 5.32 -51 6 C-50.34 6 -49.68 6 -49 6 C-49.33 6.66 -49.66 7.32 -50 8 C-54.15453202 6.19368173 -56.22010276 5.18189449 -58 1 C-39.53918458 -5.19045307 -18.97936608 -1.6005925 0 0 Z " fill="#F5E4CA" transform="translate(387,40)"/>
<path d="M0 0 C0.66 0 1.32 0 2 0 C2 2.64 2 5.28 2 8 C2.99 8.33 3.98 8.66 5 9 C5 9.66 5 10.32 5 11 C4.34 11 3.68 11 3 11 C2.67 11.66 2.34 12.32 2 13 C2 12.34 2 11.68 2 11 C0.68 11 -0.64 11 -2 11 C-2.33 12.32 -2.66 13.64 -3 15 C-3.99 15 -4.98 15 -6 15 C-6.66 13.35 -7.32 11.7 -8 10 C-8.99 11.485 -8.99 11.485 -10 13 C-11.9453125 13.29296875 -11.9453125 13.29296875 -14.125 13.1875 C-16.043125 13.0946875 -16.043125 13.0946875 -18 13 C-18.33 11.02 -18.66 9.04 -19 7 C-15.98968256 6.06576355 -15.13349732 5.95550089 -12 7 C-12 6.34 -12 5.68 -12 5 C-11.113125 5.04125 -10.22625 5.0825 -9.3125 5.125 C-5.98134553 4.99929606 -3.91569068 4.58280351 -1 3 C-0.67 2.01 -0.34 1.02 0 0 Z " fill="#D34C20" transform="translate(86,13)"/>
<path d="M0 0 C2.85423192 -0.02718316 5.70820015 -0.04692705 8.5625 -0.0625 C9.36236328 -0.07087891 10.16222656 -0.07925781 10.98632812 -0.08789062 C15.76385249 -0.10739072 20.27115591 0.22701587 25 1 C26.81120716 1.19960242 28.62364761 1.38856895 30.4375 1.5625 C31.30246094 1.64628906 32.16742188 1.73007812 33.05859375 1.81640625 C33.69925781 1.87699219 34.33992188 1.93757813 35 2 C34 4 34 4 31.3125 5.125 C28.0420565 5.98889074 25.36293818 6.16013991 22 6 C22 5.01 22 4.02 22 3 C20.82244141 3.23396484 20.82244141 3.23396484 19.62109375 3.47265625 C13.74588334 4.56119217 8.85292771 5.33021084 3 4 C3 3.34 3 2.68 3 2 C2.01 2 1.02 2 0 2 C0 1.34 0 0.68 0 0 Z " fill="#E78E66" transform="translate(166,42)"/>
<path d="M0 0 C0.33 0 0.66 0 1 0 C1 1.98 1 3.96 1 6 C4.96 6.33 8.92 6.66 13 7 C12.01 7.495 12.01 7.495 11 8 C11.33 8.66 11.66 9.32 12 10 C12.99 10.33 13.98 10.66 15 11 C14.67 11.99 14.34 12.98 14 14 C13.41299316 13.9285376 12.82598633 13.8570752 12.22119141 13.78344727 C5.58227889 13.03950962 -0.94919531 12.87956578 -7.625 12.9375 C-9.13126953 12.94426758 -9.13126953 12.94426758 -10.66796875 12.95117188 C-13.11204471 12.96281033 -15.5559882 12.9791576 -18 13 C-18 12.34 -18 11.68 -18 11 C-16.01432292 10.77213542 -14.02864583 10.54427083 -12.04296875 10.31640625 C-9.80603607 10.02829265 -9.80603607 10.02829265 -7 9 C-4.99650739 9.31165441 -2.99673484 9.64763503 -1 10 C0.99965715 10.03703069 3.00056665 10.04760556 5 10 C5.33 9.34 5.66 8.68 6 8 C3.36 8 0.72 8 -2 8 C-1.125 1.125 -1.125 1.125 0 0 Z " fill="#EFC08D" transform="translate(258,51)"/>
<path d="M0 0 C-0.33 0.99 -0.66 1.98 -1 3 C-3.64 3 -6.28 3 -9 3 C-9.33 3.99 -9.66 4.98 -10 6 C-14.32448133 6.73832608 -18.65535464 7.39174965 -23 8 C-23 8.66 -23 9.32 -23 10 C-23.99 10.495 -23.99 10.495 -25 11 C-25.46651207 13.12576782 -25.46651207 13.12576782 -25.625 15.5625 C-25.69976562 16.38878906 -25.77453125 17.21507813 -25.8515625 18.06640625 C-25.90054688 18.70449219 -25.94953125 19.34257813 -26 20 C-32.75 22 -32.75 22 -35 22 C-35 21.34 -35 20.68 -35 20 C-32.09399739 18.74335022 -30.20395416 18 -27 18 C-27 16.68 -27 15.36 -27 14 C-27.7425 14.020625 -28.485 14.04125 -29.25 14.0625 C-31.70462279 14.00671312 -33.66109261 13.6930096 -36 13 C-36 12.34 -36 11.68 -36 11 C-34.948125 11.103125 -33.89625 11.20625 -32.8125 11.3125 C-28.9236702 11.42136742 -28.9236702 11.42136742 -26.875 8.75 C-23.04264417 5.08426834 -19.1995301 4.2790766 -14.15625 2.89453125 C-11.03825592 2.07466325 -11.03825592 2.07466325 -8.30078125 0.89453125 C-5.44108817 -0.21730188 -3.04029302 -0.14140898 0 0 Z " fill="#E8A776" transform="translate(211,43)"/>
<path d="M0 0 C0 0.99 0 1.98 0 3 C-1.65 3.66 -3.3 4.32 -5 5 C-4.34 5.33 -3.68 5.66 -3 6 C-3 6.66 -3 7.32 -3 8 C-4.65 8 -6.3 8 -8 8 C-8 8.66 -8 9.32 -8 10 C-11.22791555 12.1519437 -12.28400809 12.20086443 -16 12 C-16.33 12.66 -16.66 13.32 -17 14 C-17.99 14 -18.98 14 -20 14 C-19.67 12.35 -19.34 10.7 -19 9 C-15.88742431 9 -13.89234315 9.17361624 -11 10 C-11 9.34 -11 8.68 -11 8 C-13.31 7.67 -15.62 7.34 -18 7 C-17.67 6.34 -17.34 5.68 -17 5 C-13.9375 4.375 -13.9375 4.375 -11 4 C-11 3.01 -11 2.02 -11 1 C-10.443125 1.20625 -9.88625 1.4125 -9.3125 1.625 C-5.72619259 2.20656336 -3.49137937 0 0 0 Z " fill="#D04E26" transform="translate(87,27)"/>
<path d="M0 0 C4.29 0 8.58 0 13 0 C12.67 1.98 12.34 3.96 12 6 C11.34 6 10.68 6 10 6 C10 6.66 10 7.32 10 8 C-0.2165875 8.28734152 -9.90994238 7.46764474 -20 6 C-20 5.67 -20 5.34 -20 5 C-15.05 5 -10.1 5 -5 5 C-4.67 4.01 -4.34 3.02 -4 2 C-4 2.66 -4 3.32 -4 4 C-0.04 4.33 3.92 4.66 8 5 C8.33 4.34 8.66 3.68 9 3 C5.37 3 1.74 3 -2 3 C-1.34 2.67 -0.68 2.34 0 2 C0 1.34 0 0.68 0 0 Z " fill="#F7DFBD" transform="translate(380,56)"/>
<path d="M0 0 C3.875 1.75 3.875 1.75 5 4 C5.33 3.67 5.66 3.34 6 3 C7.51928038 2.92820036 9.04167482 2.91607993 10.5625 2.9375 C11.38878906 2.94652344 12.21507812 2.95554688 13.06640625 2.96484375 C13.70449219 2.97644531 14.34257812 2.98804688 15 3 C14.34 4.32 13.68 5.64 13 7 C12.01 7 11.02 7 10 7 C10 7.99 10 8.98 10 10 C9.01 10 8.02 10 7 10 C7.66 11.65 8.32 13.3 9 15 C7.68 15.33 6.36 15.66 5 16 C4.67 15.01 4.34 14.02 4 13 C3.34 12.67 2.68 12.34 2 12 C2.66 10.68 3.32 9.36 4 8 C3.34 8 2.68 8 2 8 C1.01 7.67 0.02 7.34 -1 7 C-0.34 6.01 0.32 5.02 1 4 C0.69159401 1.84725052 0.69159401 1.84725052 0 0 Z " fill="#DD8054" transform="translate(162,48)"/>
<path d="M0 0 C0.99 0.33 1.98 0.66 3 1 C2.855625 1.62003906 2.71125 2.24007813 2.5625 2.87890625 C1.08168982 9.94360481 0.88962641 16.63360544 1.125 23.8125 C1 27 1 27 -1 30 C-3.6875 30.51171875 -3.6875 30.51171875 -7 30.6875 C-8.74990234 30.78224609 -8.74990234 30.78224609 -10.53515625 30.87890625 C-23.64829587 31.33720087 -23.64829587 31.33720087 -30 30 C-30 29.67 -30 29.34 -30 29 C-21.09 28.67 -12.18 28.34 -3 28 C-2.17892384 23.89461919 -1.94759833 20.91399 -2.0625 16.8125 C-2.12248462 10.96066741 -1.43163823 5.6626405 0 0 Z " fill="#E08F5A" transform="translate(67,10)"/>
<path d="M0 0 C0.99 0.33 1.98 0.66 3 1 C3.103125 1.94875 3.20625 2.8975 3.3125 3.875 C3.68539295 7.29107501 3.68539295 7.29107501 7 9 C3.30827405 12.53790403 -0.09390595 12.59115883 -5 13 C-5 12.01 -5 11.02 -5 10 C-5.99 9.67 -6.98 9.34 -8 9 C-7 6 -7 6 -4.625 4.3125 C-2 3 -2 3 1 3 C0.67 2.01 0.34 1.02 0 0 Z " fill="#CB411C" transform="translate(76,50)"/>
<path d="M0 0 C3.12498063 -0.02895976 6.2499269 -0.04678483 9.375 -0.0625 C10.70917969 -0.07506836 10.70917969 -0.07506836 12.0703125 -0.08789062 C13.34648437 -0.09272461 13.34648437 -0.09272461 14.6484375 -0.09765625 C15.43395996 -0.10289307 16.21948242 -0.10812988 17.02880859 -0.11352539 C19 0 19 0 21 1 C20.67 2.32 20.34 3.64 20 5 C17.54212344 5.50233973 15.08374976 6.00196857 12.625 6.5 C11.92632812 6.64308594 11.22765625 6.78617188 10.5078125 6.93359375 C5.2265625 8 5.2265625 8 3 8 C3 7.01 3 6.02 3 5 C6.07617188 4.70703125 6.07617188 4.70703125 9.15234375 4.4140625 C10.06693359 4.20910156 10.06693359 4.20910156 11 4 C11.33 3.34 11.66 2.68 12 2 C8.04 2 4.08 2 0 2 C0 1.34 0 0.68 0 0 Z " fill="#F0BC8F" transform="translate(199,41)"/>
<path d="M0 0 C0 0.99 0 1.98 0 3 C0.66 3.33 1.32 3.66 2 4 C1.67 4.99 1.34 5.98 1 7 C0.236875 6.67 -0.52625 6.34 -1.3125 6 C-3.99069135 4.82563314 -3.99069135 4.82563314 -7 5 C-7 5.66 -7 6.32 -7 7 C-8.26691507 7.67408308 -9.53870749 8.33900497 -10.8125 9 C-11.52019531 9.37125 -12.22789063 9.7425 -12.95703125 10.125 C-15 11 -15 11 -18 11 C-18.12375 9.865625 -18.2475 8.73125 -18.375 7.5625 C-18.58125 6.386875 -18.7875 5.21125 -19 4 C-19.66 3.67 -20.32 3.34 -21 3 C-20.67 2.34 -20.34 1.68 -20 1 C-19.01 1.33 -18.02 1.66 -17 2 C-16.67 3.98 -16.34 5.96 -16 8 C-15.34 8 -14.68 8 -14 8 C-14 6.68 -14 5.36 -14 4 C-12.4221875 3.566875 -12.4221875 3.566875 -10.8125 3.125 C-7.13090094 2.10316357 -7.13090094 2.10316357 -4.1875 0.875 C-2 0 -2 0 0 0 Z " fill="#EA7C54" transform="translate(84,46)"/>
<path d="M0 0 C0 0.99 0 1.98 0 3 C2.475 3.495 2.475 3.495 5 4 C5 4.33 5 4.66 5 5 C-2.59 5 -10.18 5 -18 5 C-18 4.01 -18 3.02 -18 2 C-17.34 2 -16.68 2 -16 2 C-16 2.66 -16 3.32 -16 4 C-15.29875 3.54625 -14.5975 3.0925 -13.875 2.625 C-9.04720458 -0.10375393 -5.45637192 -1.60481527 0 0 Z " fill="#F1D8AB" transform="translate(354,40)"/>
<path d="M0 0 C0.70640625 0.09990234 1.4128125 0.19980469 2.140625 0.30273438 C3.88621607 0.55041959 5.63072084 0.80573871 7.375 1.0625 C7.045 1.7225 6.715 2.3825 6.375 3.0625 C5.56675781 3.05089844 4.75851562 3.03929687 3.92578125 3.02734375 C2.32283203 3.01380859 2.32283203 3.01380859 0.6875 3 C-0.36824219 2.98839844 -1.42398437 2.97679687 -2.51171875 2.96484375 C-5.35840011 3.05413739 -7.85186164 3.46290252 -10.625 4.0625 C-12.6246441 4.10022913 -14.62554061 4.10899906 -16.625 4.0625 C-16.625 3.4025 -16.625 2.7425 -16.625 2.0625 C-18.41706547 2.20334796 -20.20864917 2.35033701 -22 2.5 C-23.49660156 2.62181641 -23.49660156 2.62181641 -25.0234375 2.74609375 C-27.60427613 2.91215626 -27.60427613 2.91215626 -29.625 4.0625 C-29.625 3.0725 -29.625 2.0825 -29.625 1.0625 C-24.6986568 -0.15717491 -19.93464761 0.00535705 -14.88867188 0.1015625 C-9.57294574 0.16503386 -5.39543129 -0.80135096 0 0 Z " fill="#F1CFA7" transform="translate(288.625,37.9375)"/>
<path d="M0 0 C0.66 0 1.32 0 2 0 C1.67 1.32 1.34 2.64 1 4 C1.66 4 2.32 4 3 4 C3 3.34 3 2.68 3 2 C7.25566547 0.83936396 10.6835078 1.23826608 15 2 C15 1.34 15 0.68 15 0 C15.66 0 16.32 0 17 0 C17 0.66 17 1.32 17 2 C17.99 2.33 18.98 2.66 20 3 C20 3.66 20 4.32 20 5 C18.35 5 16.7 5 15 5 C15 5.66 15 6.32 15 7 C13.35 7 11.7 7 10 7 C10 6.34 10 5.68 10 5 C6.37 5 2.74 5 -1 5 C-0.67 3.35 -0.34 1.7 0 0 Z " fill="#E6724C" transform="translate(113,57)"/>
<path d="M0 0 C0.33 0.99 0.66 1.98 1 3 C1.55461914 2.99476318 2.10923828 2.98952637 2.68066406 2.98413086 C5.20376443 2.96328969 7.72684664 2.95031718 10.25 2.9375 C11.12269531 2.92912109 11.99539063 2.92074219 12.89453125 2.91210938 C13.73886719 2.90888672 14.58320313 2.90566406 15.453125 2.90234375 C16.22817383 2.89710693 17.00322266 2.89187012 17.80175781 2.88647461 C19.99283598 2.99963002 21.89637861 3.39447552 24 4 C24 4.66 24 5.32 24 6 C18.20203166 6.82165494 12.54140448 7.2112003 6.6875 7.25 C5.89021484 7.270625 5.09292969 7.29125 4.27148438 7.3125 C-1.55971675 7.35173432 -1.55971675 7.35173432 -3.74682617 5.60449219 C-5 4 -5 4 -5 2 C-3.35 1.34 -1.7 0.68 0 0 Z " fill="#EDD9BA" transform="translate(333,57)"/>
<path d="M0 0 C0.28875 0.639375 0.5775 1.27875 0.875 1.9375 C1.82823451 4.15206079 1.82823451 4.15206079 4 5 C10.68975319 5.58682046 15.08321818 4.06796094 21 1 C21.33 1.66 21.66 2.32 22 3 C22.66 3 23.32 3 24 3 C23.67 3.99 23.34 4.98 23 6 C19.62805013 6.42542453 16.25262102 6.8099749 12.875 7.1875 C11.44800781 7.36829102 11.44800781 7.36829102 9.9921875 7.55273438 C4.41548279 8.15300467 0.86629346 8.25238805 -4 5 C-3.67 4.01 -3.34 3.02 -3 2 C-2.01 2 -1.02 2 0 2 C0 1.34 0 0.68 0 0 Z " fill="#E6B181" transform="translate(252,83)"/>
<path d="M0 0 C0 1.65 0 3.3 0 5 C0.66 5 1.32 5 2 5 C1.67 5.99 1.34 6.98 1 8 C-0.32 8 -1.64 8 -3 8 C-3 6.35 -3 4.7 -3 3 C-4.98 3.33 -6.96 3.66 -9 4 C-9 6.31 -9 8.62 -9 11 C-11.64 11.66 -14.28 12.32 -17 13 C-16 10 -16 10 -13.9375 8.8125 C-12.9784375 8.4103125 -12.9784375 8.4103125 -12 8 C-12 6.35 -12 4.7 -12 3 C-7.77050005 0.58314288 -4.87664009 -0.34833144 0 0 Z " fill="#DD9059" transform="translate(120,40)"/>
<path d="M0 0 C3.375 -0.125 3.375 -0.125 7 0 C7.66 0.66 8.32 1.32 9 2 C8.01 2 7.02 2 6 2 C6 2.66 6 3.32 6 4 C8.97 4 11.94 4 15 4 C10.04081633 8.95918367 10.04081633 8.95918367 5.8125 9.125 C4.884375 9.08375 3.95625 9.0425 3 9 C3 8.01 3 7.02 3 6 C2.01 5.67 1.02 5.34 0 5 C0 3.35 0 1.7 0 0 Z " fill="#B61F03" transform="translate(7,42)"/>
<path d="M0 0 C0.66 0.33 1.32 0.66 2 1 C2.125 5.75 2.125 5.75 1 8 C1.39938767 10.09821215 1.39938767 10.09821215 2 12 C0.15741754 13.92863714 -1.34878977 14.92009594 -4.01757812 15.24755859 C-6.43427459 15.29505495 -8.83398212 15.26111304 -11.25 15.1875 C-12.09046875 15.17396484 -12.9309375 15.16042969 -13.796875 15.14648438 C-15.86485938 15.11123464 -17.93251271 15.0574302 -20 15 C-20 14.67 -20 14.34 -20 14 C-19.31292969 13.86722656 -18.62585938 13.73445313 -17.91796875 13.59765625 C-16.56638672 13.33275391 -16.56638672 13.33275391 -15.1875 13.0625 C-14.29417969 12.88847656 -13.40085937 12.71445312 -12.48046875 12.53515625 C-9.88602829 12.02258847 -9.88602829 12.02258847 -7 11 C-7 11.66 -7 12.32 -7 13 C-5.02 12.34 -3.04 11.68 -1 11 C-1 8.69 -1 6.38 -1 4 C-1.66 4 -2.32 4 -3 4 C-3 3.01 -3 2.02 -3 1 C-2.01 0.67 -1.02 0.34 0 0 Z " fill="#EFD9C3" transform="translate(393,39)"/>
<path d="M0 0 C6.6 0.33 13.2 0.66 20 1 C20.89098578 5.4549289 20.97226401 6.89488527 20 11 C20 11.99 20 12.98 20 14 C19.01 14.66 18.02 15.32 17 16 C17 13 17 10 17 7 C16.68197057 5.33034549 16.35015049 3.66321482 16 2 C15.34 2.165 14.68 2.33 14 2.5 C10.26900206 3.12183299 6.78126622 3.06408926 3 3 C3 2.34 3 1.68 3 1 C2.01 0.67 1.02 0.34 0 0 Z " fill="#E1A46E" transform="translate(117,39)"/>
<path d="M0 0 C0 0.66 0 1.32 0 2 C-0.99 2 -1.98 2 -3 2 C-3.33 3.32 -3.66 4.64 -4 6 C-3.01 6 -2.02 6 -1 6 C-1 6.66 -1 7.32 -1 8 C0.98 8.66 2.96 9.32 5 10 C5 11.32 5 12.64 5 14 C3.35 13.67 1.7 13.34 0 13 C0 12.01 0 11.02 0 10 C-0.99 10 -1.98 10 -3 10 C-3 9.34 -3 8.68 -3 8 C-3.66 8 -4.32 8 -5 8 C-5.33 7.01 -5.66 6.02 -6 5 C-7.65 4.67 -9.3 4.34 -11 4 C-11 3.01 -11 2.02 -11 1 C-7.26513121 0.4254048 -3.78706732 0 0 0 Z " fill="#E9B07F" transform="translate(251,40)"/>
<path d="M0 0 C2.31 0 4.62 0 7 0 C7 1.65 7 3.3 7 5 C5.35 5.33 3.7 5.66 2 6 C1.67 4.68 1.34 3.36 1 2 C0.34 3.32 -0.32 4.64 -1 6 C-1.66 6 -2.32 6 -3 6 C-3 6.66 -3 7.32 -3 8 C-1.35 8 0.3 8 2 8 C2.33 8.66 2.66 9.32 3 10 C0.36 10 -2.28 10 -5 10 C-5 8.68 -5 7.36 -5 6 C-5.99 6 -6.98 6 -8 6 C-8 5.34 -8 4.68 -8 4 C-7.236875 3.855625 -6.47375 3.71125 -5.6875 3.5625 C-2.91827092 3.0367406 -2.91827092 3.0367406 0 2 C0 1.34 0 0.68 0 0 Z " fill="#C6451F" transform="translate(80,36)"/>
<path d="M0 0 C0.86625 0.391875 1.7325 0.78375 2.625 1.1875 C2.955 2.1775 3.285 3.1675 3.625 4.1875 C2.625 5.1875 2.625 5.1875 0.25 5.3125 C-2.375 5.1875 -2.375 5.1875 -5.375 4.1875 C-7.54215557 5.06233915 -7.54215557 5.06233915 -9.375 6.1875 C-9.375 5.5275 -9.375 4.8675 -9.375 4.1875 C-10.365 3.8575 -11.355 3.5275 -12.375 3.1875 C-12.375 2.1975 -12.375 1.2075 -12.375 0.1875 C-8.41657971 -1.79171015 -4.17240114 -1.00446694 0 0 Z " fill="#4B1317" transform="translate(22.375,55.8125)"/>
<path d="M0 0 C0.33 0 0.66 0 1 0 C1 2.31 1 4.62 1 7 C0.34 7 -0.32 7 -1 7 C0.21044132 11.60742865 0.21044132 11.60742865 2 16 C2.60328125 15.98839844 3.2065625 15.97679687 3.828125 15.96484375 C5.02695312 15.95130859 5.02695312 15.95130859 6.25 15.9375 C7.43335938 15.92009766 7.43335938 15.92009766 8.640625 15.90234375 C10.90691002 15.99614694 12.8288895 16.36758937 15 17 C15 17.66 15 18.32 15 19 C13.06257659 19.02703381 11.12504521 19.04641125 9.1875 19.0625 C8.10855469 19.07410156 7.02960937 19.08570312 5.91796875 19.09765625 C3 19 3 19 0 18 C-2.3125 15.3125 -2.3125 15.3125 -4 12 C-3.375 9 -3.375 9 -2 6 C-1.62875 4.88625 -1.2575 3.7725 -0.875 2.625 C-0.58625 1.75875 -0.2975 0.8925 0 0 Z " fill="#7A312A" transform="translate(6,47)"/>
<path d="M0 0 C1.32 0 2.64 0 4 0 C4 2.64 4 5.28 4 8 C2.35 8 0.7 8 -1 8 C-1 8.66 -1 9.32 -1 10 C-1.99 10 -2.98 10 -4 10 C-4 9.34 -4 8.68 -4 8 C-4.99 8 -5.98 8 -7 8 C-7 7.34 -7 6.68 -7 6 C-5.68 5.67 -4.36 5.34 -3 5 C-3 4.01 -3 3.02 -3 2 C-2.01 2 -1.02 2 0 2 C0 1.34 0 0.68 0 0 Z " fill="#EBA270" transform="translate(281,72)"/>
<path d="M0 0 C4.84688192 0.78175515 9.3766367 2.39844278 14 4 C12.73828125 5.484375 12.73828125 5.484375 11 7 C6.1414266 7.31859498 1.78585167 6.95717033 -3 6 C-2.01 5.34 -1.02 4.68 0 4 C0 2.68 0 1.36 0 0 Z " fill="#E69B67" transform="translate(253,82)"/>
<path d="M0 0 C0.99 0.33 1.98 0.66 3 1 C3.33 1.99 3.66 2.98 4 4 C4.66 3.67 5.32 3.34 6 3 C6.33 2.01 6.66 1.02 7 0 C7.99 0 8.98 0 10 0 C10 0.66 10 1.32 10 2 C10.66 2 11.32 2 12 2 C12 2.99 12 3.98 12 5 C11.34 5 10.68 5 10 5 C10 5.66 10 6.32 10 7 C5.545 7.495 5.545 7.495 1 8 C-1 5 -1 5 -0.625 2.3125 C-0.41875 1.549375 -0.2125 0.78625 0 0 Z " fill="#DC5F32" transform="translate(70,10)"/>
<path d="M0 0 C0.66 0 1.32 0 2 0 C2.33 1.98 2.66 3.96 3 6 C1.68 5.67 0.36 5.34 -1 5 C-1.33 5.99 -1.66 6.98 -2 8 C-3.32 8 -4.64 8 -6 8 C-6 8.66 -6 9.32 -6 10 C-10.29 10 -14.58 10 -19 10 C-16.50310435 7.50310435 -15.7369718 7.83872107 -12.3125 7.8125 C-7.95673442 7.49732159 -6.015736 6.59926111 -3 3.4375 C-2.46375 2.79683594 -1.9275 2.15617187 -1.375 1.49609375 C-0.92125 1.00238281 -0.4675 0.50867187 0 0 Z " fill="#E5C29B" transform="translate(290,49)"/>
<path d="M0 0 C0.474375 0.845625 0.94875 1.69125 1.4375 2.5625 C-1.1279594 5.1279594 -3.03936668 5.10296087 -6.5625 5.5625 C-6.5625 4.9025 -6.5625 4.2425 -6.5625 3.5625 C-7.201875 3.294375 -7.84125 3.02625 -8.5 2.75 C-10.5625 1.5625 -10.5625 1.5625 -11.5625 -1.4375 C-3.36993982 -3.20555252 -3.36993982 -3.20555252 0 0 Z " fill="#DB6845" transform="translate(134.5625,44.4375)"/>
<path d="M0 0 C0 0.99 0 1.98 0 3 C-1.1446875 3.185625 -1.1446875 3.185625 -2.3125 3.375 C-5.20267136 3.88102792 -5.20267136 3.88102792 -8 6 C-7.525625 7.051875 -7.05125 8.10375 -6.5625 9.1875 C-5.30676259 12.10175851 -4.47765619 14.84746914 -4 18 C-4.66 18.33 -5.32 18.66 -6 19 C-6.66 18.34 -7.32 17.68 -8 17 C-7.34 17 -6.68 17 -6 17 C-6.47050781 16.60167969 -6.94101562 16.20335938 -7.42578125 15.79296875 C-9.31760553 13.6382607 -9.66060789 12.10908118 -10.1875 9.3125 C-10.34605469 8.50425781 -10.50460938 7.69601563 -10.66796875 6.86328125 C-10.77753906 6.24839844 -10.88710938 5.63351563 -11 5 C-7.39042389 1.7089159 -4.87362847 0.45336079 0 0 Z " fill="#B35F38" transform="translate(39,44)"/>
<path d="M0 0 C6.875 0.875 6.875 0.875 8 2 C10.69235776 2.23678716 13.36498156 2.42198025 16.0625 2.5625 C17.20041992 2.62727539 17.20041992 2.62727539 18.36132812 2.69335938 C20.24065438 2.79973633 22.12030244 2.90039934 24 3 C22 5 22 5 18.77734375 5.23046875 C16.87662109 5.20919922 16.87662109 5.20919922 14.9375 5.1875 C13.66777344 5.18105469 12.39804687 5.17460938 11.08984375 5.16796875 C8 5 8 5 7 4 C5.65252916 3.76924918 4.29622435 3.58846937 2.9375 3.4375 C1.638125 3.293125 0.33875 3.14875 -1 3 C-0.67 2.01 -0.34 1.02 0 0 Z " fill="#F1CA9E" transform="translate(349,48)"/>
<path d="M0 0 C0.66 0 1.32 0 2 0 C2 0.66 2 1.32 2 2 C3.10384665 3.73079888 3.10384665 3.73079888 5 5 C7.74243563 5.36270484 7.74243563 5.36270484 10.6875 5.1875 C12.17830078 5.14689453 12.17830078 5.14689453 13.69921875 5.10546875 C14.45847656 5.07066406 15.21773437 5.03585938 16 5 C15.67 5.99 15.34 6.98 15 8 C13.58344207 8.0272415 12.16672955 8.04650467 10.75 8.0625 C9.56664063 8.07990234 9.56664063 8.07990234 8.359375 8.09765625 C6.09308998 8.00385306 4.1711105 7.63241063 2 7 C2 6.34 2 5.68 2 5 C1.01 5 0.02 5 -1 5 C-0.67 3.35 -0.34 1.7 0 0 Z " fill="#C6633B" transform="translate(67,57)"/>
<path d="M0 0 C1.65 0 3.3 0 5 0 C5 0.99 5 1.98 5 3 C7.64 3 10.28 3 13 3 C12.67 3.99 12.34 4.98 12 6 C6.158256 6.35050464 2.1468192 6.16727335 -3 3 C-2.01 2.67 -1.02 2.34 0 2 C0 1.34 0 0.68 0 0 Z " fill="#EFAF7C" transform="translate(251,56)"/>
<path d="M0 0 C0.99 0 1.98 0 3 0 C3 0.66 3 1.32 3 2 C6.3 2.33 9.6 2.66 13 3 C12.01 3.495 12.01 3.495 11 4 C11 4.66 11 5.32 11 6 C7.37 6 3.74 6 0 6 C0 4.02 0 2.04 0 0 Z " fill="#DC643B" transform="translate(117,53)"/>
<path d="M0 0 C0.99 0 1.98 0 3 0 C3 0.99 3 1.98 3 3 C3.66 3 4.32 3 5 3 C5.33 5.31 5.66 7.62 6 10 C5.01 10.495 5.01 10.495 4 11 C3.67 10.34 3.34 9.68 3 9 C2.01 8.67 1.02 8.34 0 8 C-1.1875 4.9375 -1.1875 4.9375 -2 2 C-1.34 2 -0.68 2 0 2 C0 1.34 0 0.68 0 0 Z " fill="#EDE1B8" transform="translate(387,40)"/>
<path d="M0 0 C1.6290187 0.09050104 3.25459628 0.24727869 4.875 0.4375 C7.62619649 0.75432875 10.22703147 1 13 1 C13 1.66 13 2.32 13 3 C11.85724609 2.98259766 11.85724609 2.98259766 10.69140625 2.96484375 C4.36159678 2.90952706 -1.72555549 3.1634074 -8 4 C-8 5.65 -8 7.3 -8 9 C-8.66 9 -9.32 9 -10 9 C-10 7.02 -10 5.04 -10 3 C-9.04287109 2.80083984 -9.04287109 2.80083984 -8.06640625 2.59765625 C-7.24011719 2.42105469 -6.41382813 2.24445312 -5.5625 2.0625 C-4.73878906 1.88847656 -3.91507813 1.71445312 -3.06640625 1.53515625 C-1.02338796 1.19247006 -1.02338796 1.19247006 0 0 Z " fill="#C65F3E" transform="translate(15,38)"/>
<path d="M0 0 C2.98704569 0.49784095 4.39324263 1.26216175 7 3 C7.6875 5.125 7.6875 5.125 8 7 C5.36 7 2.72 7 0 7 C-0.38133299 5.0085944 -0.71325582 3.00720923 -1 1 C-0.67 0.67 -0.34 0.34 0 0 Z " fill="#D8562A" transform="translate(68,19)"/>
<path d="M0 0 C2.64 0.66 5.28 1.32 8 2 C8 3.32 8 4.64 8 6 C4.91190305 7.76462683 3.76687864 8 0 8 C0 6.68 0 5.36 0 4 C0.66 4 1.32 4 2 4 C2 3.34 2 2.68 2 2 C1.01 2.33 0.02 2.66 -1 3 C-0.67 2.01 -0.34 1.02 0 0 Z " fill="#DD8258" transform="translate(176,55)"/>
<path d="M0 0 C4.29 0 8.58 0 13 0 C12.67 1.98 12.34 3.96 12 6 C11.34 6 10.68 6 10 6 C10 6.66 10 7.32 10 8 C9.34 8 8.68 8 8 8 C8.33 6.35 8.66 4.7 9 3 C5.37 3 1.74 3 -2 3 C-1.34 2.67 -0.68 2.34 0 2 C0 1.34 0 0.68 0 0 Z " fill="#E8D8BA" transform="translate(380,56)"/>
<path d="M0 0 C0.99 0.33 1.98 0.66 3 1 C2.67 4.63 2.34 8.26 2 12 C-0.31 12 -2.62 12 -5 12 C-3.68 11.67 -2.36 11.34 -1 11 C-1.33 10.01 -1.66 9.02 -2 8 C-1.54451823 5.26187393 -0.74685247 2.6798824 0 0 Z " fill="#E8673A" transform="translate(89,10)"/>
<path d="M0 0 C0.66 0.33 1.32 0.66 2 1 C2 2.66666667 2 4.33333333 2 6 C-0.31 6.66 -2.62 7.32 -5 8 C-4.67 7.01 -4.34 6.02 -4 5 C-5.65 5.33 -7.3 5.66 -9 6 C-8.34 5.01 -7.68 4.02 -7 3 C-3.375 2.3125 -3.375 2.3125 0 2 C0 1.34 0 0.68 0 0 Z " fill="#E8B072" transform="translate(291,63)"/>
<path d="M0 0 C1.65 0.33 3.3 0.66 5 1 C5.125 6.75 5.125 6.75 4 9 C2.35 9 0.7 9 -1 9 C-1.33 8.34 -1.66 7.68 -2 7 C-0.68 7 0.64 7 2 7 C2 6.01 2 5.02 2 4 C1.01 3.67 0.02 3.34 -1 3 C-0.67 2.01 -0.34 1.02 0 0 Z " fill="#CF5A34" transform="translate(84,46)"/>
<path d="M0 0 C3.3 0 6.6 0 10 0 C10.33 1.32 10.66 2.64 11 4 C8.69 4.33 6.38 4.66 4 5 C4 4.34 4 3.68 4 3 C2.68 2.67 1.36 2.34 0 2 C0 1.34 0 0.68 0 0 Z " fill="#EDA877" transform="translate(269,59)"/>
<path d="M0 0 C3.91402949 1.26941497 5.79072873 2.51167694 8 6 C6.02 6.99 6.02 6.99 4 8 C3.67 7.34 3.34 6.68 3 6 C0.87423218 5.53348793 0.87423218 5.53348793 -1.5625 5.375 C-2.38878906 5.30023438 -3.21507812 5.22546875 -4.06640625 5.1484375 C-4.70449219 5.09945312 -5.34257813 5.05046875 -6 5 C-6 4.67 -6 4.34 -6 4 C-4.35 3.67 -2.7 3.34 -1 3 C-0.67 2.01 -0.34 1.02 0 0 Z " fill="#D5582C" transform="translate(60,40)"/>
<path d="M0 0 C0.33 0.66 0.66 1.32 1 2 C1.99 1.67 2.98 1.34 4 1 C4.66 1.33 5.32 1.66 6 2 C6 1.34 6 0.68 6 0 C6.66 0 7.32 0 8 0 C8.33 1.65 8.66 3.3 9 5 C8.4225 4.79375 7.845 4.5875 7.25 4.375 C4.44531206 3.90755201 3.44228447 4.66068271 1 6 C0.01 6 -0.98 6 -2 6 C-2.66 4.35 -3.32 2.7 -4 1 C-2.68 1.33 -1.36 1.66 0 2 C0 1.34 0 0.68 0 0 Z " fill="#E8AA7D" transform="translate(294,42)"/>
<path d="M0 0 C0 0.66 0 1.32 0 2 C-6.76106962 3.27567351 -12.31349436 2.48725585 -19 1 C-19 0.67 -19 0.34 -19 0 C-16.77156512 -0.19600577 -14.54220107 -0.38146569 -12.3125 -0.5625 C-10.45044922 -0.71912109 -10.45044922 -0.71912109 -8.55078125 -0.87890625 C-5.44164467 -0.98493841 -2.99189028 -0.77228525 0 0 Z " fill="#F6DDB4" transform="translate(357,61)"/>
<path d="M0 0 C0.99 0 1.98 0 3 0 C3 0.66 3 1.32 3 2 C7.29 2 11.58 2 16 2 C8.75161008 5.62419496 -0.14686608 4.46104817 -8 3 C-8 2.67 -8 2.34 -8 2 C-5.36 2 -2.72 2 0 2 C0 1.34 0 0.68 0 0 Z " fill="#DA7244" transform="translate(48,43)"/>
<path d="M0 0 C-0.33 0.66 -0.66 1.32 -1 2 C-2.32 2 -3.64 2 -5 2 C-5.33 2.99 -5.66 3.98 -6 5 C-6 4.01 -6 3.02 -6 2 C-7.32 2 -8.64 2 -10 2 C-9.67 3.98 -9.34 5.96 -9 8 C-10.32 8.33 -11.64 8.66 -13 9 C-12.34 7.35 -11.68 5.7 -11 4 C-11.66 4 -12.32 4 -13 4 C-13 3.01 -13 2.02 -13 1 C-8.62426048 0.40667939 -4.42471556 -0.13827236 0 0 Z " fill="#E86F46" transform="translate(133,41)"/>
<path d="M0 0 C4.95 0 9.9 0 15 0 C14.34 1.98 13.68 3.96 13 6 C12.01 5.34 11.02 4.68 10 4 C10 3.34 10 2.68 10 2 C6.7 2 3.4 2 0 2 C0 1.34 0 0.68 0 0 Z " fill="#EFD5BB" transform="translate(296,40)"/>
<path d="M0 0 C0.33 0 0.66 0 1 0 C1 1.98 1 3.96 1 6 C3.97 6.33 6.94 6.66 10 7 C10 7.99 10 8.98 10 10 C8.68 10.33 7.36 10.66 6 11 C6 10.01 6 9.02 6 8 C3.36 8 0.72 8 -2 8 C-1.125 1.125 -1.125 1.125 0 0 Z " fill="#F1C89E" transform="translate(258,51)"/>
<path d="M0 0 C2.64 0 5.28 0 8 0 C7.0625 2.9375 7.0625 2.9375 5 6 C2.00607883 6.84403097 -0.89910366 6.98699834 -4 7 C-4 6.01 -4 5.02 -4 4 C-0.92382812 3.70703125 -0.92382812 3.70703125 2.15234375 3.4140625 C2.76207031 3.27742188 3.37179688 3.14078125 4 3 C4.33 2.34 4.66 1.68 5 1 C3.35 1 1.7 1 0 1 C0 0.67 0 0.34 0 0 Z " fill="#EDB784" transform="translate(206,42)"/>
<path d="M0 0 C0.89203125 0.10183594 1.7840625 0.20367187 2.703125 0.30859375 C3.37859375 0.39238281 4.0540625 0.47617187 4.75 0.5625 C4.75 1.2225 4.75 1.8825 4.75 2.5625 C3.71875 2.52125 2.6875 2.48 1.625 2.4375 C-2.8455286 2.5817106 -6.27112176 3.57306088 -10.25 5.5625 C-9.92 3.9125 -9.59 2.2625 -9.25 0.5625 C-5.98086376 -0.46865279 -3.38958652 -0.4013984 0 0 Z " fill="#F3CDA3" transform="translate(266.25,44.4375)"/>
<path d="M0 0 C0.66 0.33 1.32 0.66 2 1 C2.125 5.75 2.125 5.75 1 8 C1.39938767 10.09821215 1.39938767 10.09821215 2 12 C0.68 12.33 -0.64 12.66 -2 13 C-1.835 12.443125 -1.67 11.88625 -1.5 11.3125 C-0.95958649 8.81308751 -0.92917935 6.54954338 -1 4 C-1.66 4 -2.32 4 -3 4 C-3 3.01 -3 2.02 -3 1 C-2.01 0.67 -1.02 0.34 0 0 Z " fill="#F4E7CF" transform="translate(393,39)"/>
<path d="M0 0 C2.31 0.66 4.62 1.32 7 2 C7 2.99 7 3.98 7 5 C6.34 4.67 5.68 4.34 5 4 C4.67 4.33 4.34 4.66 4 5 C2.125 5.6875 2.125 5.6875 0 6 C-3 4 -3 4 -4 1 C-2.68 1.33 -1.36 1.66 0 2 C0 1.34 0 0.68 0 0 Z " fill="#F4B68C" transform="translate(287,60)"/>
<path d="M0 0 C-4.18586481 3.18923033 -6.70558305 4.50423019 -12 4 C-12 3.01 -12 2.02 -12 1 C-3.96428571 -1.27678571 -3.96428571 -1.27678571 0 0 Z " fill="#9C1401" transform="translate(22,47)"/>
<path d="M0 0 C3.3 0 6.6 0 10 0 C10 0.99 10 1.98 10 3 C7.69 2.67 5.38 2.34 3 2 C3 2.99 3 3.98 3 5 C1.35 5.66 -0.3 6.32 -2 7 C-1.67 5.68 -1.34 4.36 -1 3 C-0.01 3 0.98 3 2 3 C2 2.34 2 1.68 2 1 C1.34 0.67 0.68 0.34 0 0 Z " fill="#ECBE96" transform="translate(249,39)"/>
<path d="M0 0 C0.66 0.33 1.32 0.66 2 1 C2 1.66 2 2.32 2 3 C-7.83870968 5.58064516 -7.83870968 5.58064516 -11 4 C-4.74030724 -0.65837601 -4.74030724 -0.65837601 0 0 Z " fill="#E39971" transform="translate(270,73)"/>
<path d="M0 0 C0.66 0 1.32 0 2 0 C1.875 2.8125 1.875 2.8125 1 6 C-1.72457485 7.73909033 -3.72482466 9 -7 9 C-7 7.68 -7 6.36 -7 5 C-6.21625 4.731875 -5.4325 4.46375 -4.625 4.1875 C-1.71885077 3.15185568 -1.71885077 3.15185568 0 0 Z " fill="#E79C67" transform="translate(90,56)"/>
<path d="M0 0 C0.33 2.31 0.66 4.62 1 7 C-4.66153846 5.52307692 -4.66153846 5.52307692 -6.375 2.875 C-6.58125 2.25625 -6.7875 1.6375 -7 1 C-3.375 -1.125 -3.375 -1.125 0 0 Z " fill="#C9260B" transform="translate(29,49)"/>
<path d="M0 0 C0.66 0 1.32 0 2 0 C2 0.66 2 1.32 2 2 C3.98 2.66 5.96 3.32 8 4 C8 5.32 8 6.64 8 8 C6.35 7.67 4.7 7.34 3 7 C3 6.01 3 5.02 3 4 C2.01 4 1.02 4 0 4 C-0.33 3.01 -0.66 2.02 -1 1 C-0.67 0.67 -0.34 0.34 0 0 Z " fill="#E69F6F" transform="translate(248,46)"/>
<path d="M0 0 C0.99 0 1.98 0 3 0 C3 0.66 3 1.32 3 2 C3.99 2 4.98 2 6 2 C6.33 2.99 6.66 3.98 7 5 C5.68 5.33 4.36 5.66 3 6 C3.66 6.66 4.32 7.32 5 8 C3.35 7.67 1.7 7.34 0 7 C0 4.69 0 2.38 0 0 Z " fill="#E99C72" transform="translate(163,42)"/>
<path d="M0 0 C0.66 1.65 1.32 3.3 2 5 C-0.3125 5.625 -0.3125 5.625 -3 6 C-3.99 5.34 -4.98 4.68 -6 4 C-5.67 3.01 -5.34 2.02 -5 1 C-3 0 -3 0 0 0 Z " fill="#D7451B" transform="translate(74,55)"/>
<path d="M0 0 C-1.75 2.5 -1.75 2.5 -4 5 C-5.32 5 -6.64 5 -8 5 C-8.33 3.35 -8.66 1.7 -9 0 C-3.375 -1.125 -3.375 -1.125 0 0 Z " fill="#A31E09" transform="translate(34,43)"/>
<path d="M0 0 C1.485 0.99 1.485 0.99 3 2 C5.00720923 1.71325582 7.0085944 1.38133299 9 1 C9.66 1.33 10.32 1.66 11 2 C11 2.66 11 3.32 11 4 C8.03 3.505 8.03 3.505 5 3 C5.33 3.99 5.66 4.98 6 6 C3.61435923 5.42415568 1.33317216 4.77772405 -1 4 C-0.67 2.68 -0.34 1.36 0 0 Z " fill="#F07444" transform="translate(69,15)"/>
<path d="M0 0 C0.33 0.66 0.66 1.32 1 2 C1.66 2 2.32 2 3 2 C2.67 2.99 2.34 3.98 2 5 C-1.375 5.125 -1.375 5.125 -5 5 C-5.66 4.34 -6.32 3.68 -7 3 C-4.69 2.01 -2.38 1.02 0 0 Z " fill="#E6A377" transform="translate(273,84)"/>
<path d="M0 0 C0.33 0.66 0.66 1.32 1 2 C1.99 2.33 2.98 2.66 4 3 C4 3.66 4 4.32 4 5 C2.68 5 1.36 5 0 5 C-0.268125 5.639375 -0.53625 6.27875 -0.8125 6.9375 C-2 9 -2 9 -5 10 C-5 7 -5 7 -3.0625 5 C-2.381875 4.34 -1.70125 3.68 -1 3 C-0.67 2.01 -0.34 1.02 0 0 Z " fill="#7E2D28" transform="translate(29,56)"/>
<path d="M0 0 C-0.78375 0.5775 -1.5675 1.155 -2.375 1.75 C-4.80047244 3.82897637 -5.85694417 5.09040333 -7 8 C-7.66 8 -8.32 8 -9 8 C-9 6.35 -9 4.7 -9 3 C-8.34 3 -7.68 3 -7 3 C-6.67 2.01 -6.34 1.02 -6 0 C-3.50907189 -1.24546405 -2.58919267 -0.7767578 0 0 Z " fill="#F0D5B1" transform="translate(308,48)"/>
<path d="M0 0 C0 1.65 0 3.3 0 5 C-1.65 5.66 -3.3 6.32 -5 7 C-5.33 5.02 -5.66 3.04 -6 1 C-4 0 -4 0 0 0 Z " fill="#E97543" transform="translate(117,43)"/>
<path d="M0 0 C0.99 0.33 1.98 0.66 3 1 C2.67 1.99 2.34 2.98 2 4 C2.66 4.33 3.32 4.66 4 5 C2.68 5.33 1.36 5.66 0 6 C2.31 6.33 4.62 6.66 7 7 C7 7.66 7 8.32 7 9 C4.36 8.67 1.72 8.34 -1 8 C-0.67 5.36 -0.34 2.72 0 0 Z " fill="#DF6641" transform="translate(69,28)"/>
<path d="M0 0 C0.66 0 1.32 0 2 0 C2 0.66 2 1.32 2 2 C2.99 2.33 3.98 2.66 5 3 C5 3.66 5 4.32 5 5 C3.35 5 1.7 5 0 5 C0 5.66 0 6.32 0 7 C-0.66 7 -1.32 7 -2 7 C-2.33 5.35 -2.66 3.7 -3 2 C-2.01 2 -1.02 2 0 2 C0 1.34 0 0.68 0 0 Z " fill="#DC7143" transform="translate(128,57)"/>
<path d="M0 0 C0.99 0 1.98 0 3 0 C2.75 2.375 2.75 2.375 2 5 C-1.11609628 7.42363044 -4.17372685 7.17392151 -8 7 C-8 6.34 -8 5.68 -8 5 C-5.36 4.67 -2.72 4.34 0 4 C0 2.68 0 1.36 0 0 Z " fill="#E1BD96" transform="translate(277,84)"/>
<path d="M0 0 C-0.99 1.485 -0.99 1.485 -2 3 C-3.62580966 2.88601335 -5.25067157 2.75844341 -6.875 2.625 C-7.77992188 2.55539063 -8.68484375 2.48578125 -9.6171875 2.4140625 C-12 2 -12 2 -14 0 C-12.2300132 -0.19532961 -10.45895721 -0.38098882 -8.6875 -0.5625 C-7.70136719 -0.66691406 -6.71523438 -0.77132812 -5.69921875 -0.87890625 C-3 -1 -3 -1 0 0 Z " fill="#EACC94" transform="translate(390,59)"/>
<path d="M0 0 C-3.03525486 2.02350324 -4.19426202 2.32124018 -7.6875 2.625 C-8.49574219 2.69976562 -9.30398438 2.77453125 -10.13671875 2.8515625 C-10.75160156 2.90054688 -11.36648438 2.94953125 -12 3 C-12.33 2.01 -12.66 1.02 -13 0 C-8.37078475 -1.0161692 -4.65537393 -0.83796731 0 0 Z " fill="#E9CBB0" transform="translate(347,57)"/>
<path d="M0 0 C1.32 0.66 2.64 1.32 4 2 C3.0409375 2.433125 3.0409375 2.433125 2.0625 2.875 C-0.15206079 3.82823451 -0.15206079 3.82823451 -1 6 C-0.01 6.33 0.98 6.66 2 7 C2 7.99 2 8.98 2 10 C0.68 10 -0.64 10 -2 10 C-2.1953125 3.9453125 -2.1953125 3.9453125 -2 2 C-1.34 1.34 -0.68 0.68 0 0 Z " fill="#EF9E65" transform="translate(165,54)"/>
<path d="M0 0 C3.3 0 6.6 0 10 0 C10.33 1.32 10.66 2.64 11 4 C10.67 3.34 10.34 2.68 10 2 C9.0925 2.165 8.185 2.33 7.25 2.5 C4 3 4 3 0 3 C0 2.01 0 1.02 0 0 Z " fill="#F0D4BF" transform="translate(338,53)"/>
<path d="M0 0 C2.31 0.66 4.62 1.32 7 2 C7.33 3.32 7.66 4.64 8 6 C6.35 6 4.7 6 3 6 C3 5.34 3 4.68 3 4 C2.34 4 1.68 4 1 4 C0.67 2.68 0.34 1.36 0 0 Z " fill="#F2AE8F" transform="translate(239,43)"/>
<path d="M0 0 C0 1.65 0 3.3 0 5 C0.66 5 1.32 5 2 5 C1.67 5.99 1.34 6.98 1 8 C-0.32 8 -1.64 8 -3 8 C-3 6.35 -3 4.7 -3 3 C-3.66 2.67 -4.32 2.34 -5 2 C-1.125 0 -1.125 0 0 0 Z " fill="#E88159" transform="translate(120,40)"/>
<path d="M0 0 C2.31 0 4.62 0 7 0 C7 1.65 7 3.3 7 5 C5.35 5.33 3.7 5.66 2 6 C1.855625 5.38125 1.71125 4.7625 1.5625 4.125 C1.06847775 1.96741678 1.06847775 1.96741678 0 0 Z " fill="#D55125" transform="translate(80,36)"/>
<path d="M0 0 C1.37562854 1.28965176 2.70766393 2.62689293 4 4 C4 4.66 4 5.32 4 6 C3.34 6 2.68 6 2 6 C1.67 6.99 1.34 7.98 1 9 C0.34 8.34 -0.32 7.68 -1 7 C-1 6.01 -1 5.02 -1 4 C-1.66 4 -2.32 4 -3 4 C-3 3.34 -3 2.68 -3 2 C-2.01 1.34 -1.02 0.68 0 0 Z " fill="#E7B08D" transform="translate(294,55)"/>
<path d="M0 0 C1.32 0 2.64 0 4 0 C4.33 0.99 4.66 1.98 5 3 C8.00847418 4.22520264 8.00847418 4.22520264 11 5 C7.25 7 7.25 7 5 7 C5 6.34 5 5.68 5 5 C4.360625 4.731875 3.72125 4.46375 3.0625 4.1875 C1 3 1 3 0 0 Z " fill="#D55730" transform="translate(123,43)"/>
<path d="M0 0 C-0.33 1.65 -0.66 3.3 -1 5 C-3.475 4.01 -3.475 4.01 -6 3 C-6 2.01 -6 1.02 -6 0 C-3.50907189 -1.24546405 -2.58919267 -0.7767578 0 0 Z " fill="#F0B28F" transform="translate(257,45)"/>
<path d="M0 0 C5.61 0.33 11.22 0.66 17 1 C17 1.33 17 1.66 17 2 C12.23692563 2.95261487 7.8333472 3.08333357 3 3 C3 2.34 3 1.68 3 1 C2.01 0.67 1.02 0.34 0 0 Z " fill="#F2A975" transform="translate(117,39)"/>
<path d="M0 0 C0 0.66 0 1.32 0 2 C0.99 1.67 1.98 1.34 3 1 C3.66 1.66 4.32 2.32 5 3 C4 4 4 4 1.93359375 4.09765625 C1.10988281 4.08605469 0.28617187 4.07445312 -0.5625 4.0625 C-1.38878906 4.05347656 -2.21507812 4.04445313 -3.06640625 4.03515625 C-3.70449219 4.02355469 -4.34257812 4.01195312 -5 4 C-5 3.01 -5 2.02 -5 1 C-2 0 -2 0 0 0 Z " fill="#F2DFC4" transform="translate(344,47)"/>
<path d="M0 0 C0 0.33 0 0.66 0 1 C-1.65 1 -3.3 1 -5 1 C-5.433125 1.928125 -5.433125 1.928125 -5.875 2.875 C-7 5 -7 5 -9 7 C-9.185625 6.071875 -9.185625 6.071875 -9.375 5.125 C-9.87197356 2.80879168 -9.87197356 2.80879168 -12 1 C-7.93631321 0.22596442 -4.13574827 -0.0984702 0 0 Z " fill="#E29070" transform="translate(176,46)"/>
<path d="M0 0 C-0.33 0.99 -0.66 1.98 -1 3 C-4.3 3 -7.6 3 -11 3 C-10 1 -10 1 -8.3125 0.375 C-5.51555886 -0.07855802 -2.82858003 -0.06428591 0 0 Z " fill="#EA9A6A" transform="translate(211,43)"/>
<path d="M0 0 C5.75 0.75 5.75 0.75 8 3 C8 3.99 8 4.98 8 6 C6.35 5.67 4.7 5.34 3 5 C3 4.01 3 3.02 3 2 C2.01 2 1.02 2 0 2 C0 1.34 0 0.68 0 0 Z " fill="#EC754F" transform="translate(66,42)"/>
<path d="M0 0 C3.63 0.66 7.26 1.32 11 2 C11 1.34 11 0.68 11 0 C11.99 0.33 12.98 0.66 14 1 C11.71823587 3.07384637 10.55676517 3.98397191 7.421875 4.07421875 C6.09929687 3.88279297 6.09929687 3.88279297 4.75 3.6875 C3.85796875 3.56761719 2.9659375 3.44773438 2.046875 3.32421875 C1.37140625 3.21722656 0.6959375 3.11023437 0 3 C0 2.01 0 1.02 0 0 Z " fill="#D68253" transform="translate(169,43)"/>
<path d="M0 0 C0 0.99 0 1.98 0 3 C-3.67410785 4.17571451 -7.16929183 4.07366746 -11 4 C-11 3.01 -11 2.02 -11 1 C-10.443125 1.20625 -9.88625 1.4125 -9.3125 1.625 C-5.72619259 2.20656336 -3.49137937 0 0 0 Z " fill="#D75328" transform="translate(87,27)"/>
<path d="M0 0 C1.65 0 3.3 0 5 0 C5 0.99 5 1.98 5 3 C4.34 3.66 3.68 4.32 3 5 C0.06546739 4.63318342 -0.86437246 4.13562754 -3 2 C-2.01 2 -1.02 2 0 2 C0 1.34 0 0.68 0 0 Z " fill="#E7A478" transform="translate(251,56)"/>
<path d="M0 0 C3.71599191 -0.20086443 4.77208445 -0.1519437 8 2 C8 2.66 8 3.32 8 4 C5.69 4 3.38 4 1 4 C0.67 2.68 0.34 1.36 0 0 Z " fill="#CD4016" transform="translate(76,31)"/>
<path d="M0 0 C1.32 0.33 2.64 0.66 4 1 C4.66 3.97 5.32 6.94 6 10 C5.01 10 4.02 10 3 10 C2.87625 8.865625 2.7525 7.73125 2.625 6.5625 C2.41875 5.386875 2.2125 4.21125 2 3 C1.34 2.67 0.68 2.34 0 2 C0 1.34 0 0.68 0 0 Z " fill="#E18C59" transform="translate(63,47)"/>
<path d="M0 0 C-0.33 1.32 -0.66 2.64 -1 4 C-3.64 4.33 -6.28 4.66 -9 5 C-6.54789272 1.19923372 -6.54789272 1.19923372 -3.9375 0.25 C-2 0 -2 0 0 0 Z " fill="#E1542A" transform="translate(60,40)"/>
<path d="M0 0 C0 0.66 0 1.32 0 2 C1.98 2 3.96 2 6 2 C6 2.33 6 2.66 6 3 C1.38 3 -3.24 3 -8 3 C-7.67 2.34 -7.34 1.68 -7 1 C-4.61370553 0.38812962 -2.46459429 0 0 0 Z " fill="#CB4E2B" transform="translate(37,38)"/>
<path d="M0 0 C3 2 3 2 5 4 C4.625 6.625 4.625 6.625 4 9 C3.01 8.34 2.02 7.68 1 7 C1.66 7 2.32 7 3 7 C2.505 6.5875 2.01 6.175 1.5 5.75 C0 4 0 4 0 0 Z " fill="#9E4B34" transform="translate(30,54)"/>
<path d="M0 0 C2.97 0.33 5.94 0.66 9 1 C7.02 1.99 7.02 1.99 5 3 C4.34 3.66 3.68 4.32 3 5 C2.01 4.34 1.02 3.68 0 3 C0 2.01 0 1.02 0 0 Z " fill="#EBCEAF" transform="translate(371,56)"/>
<path d="M0 0 C0.66 0 1.32 0 2 0 C2.33 1.32 2.66 2.64 3 4 C3.639375 4.12375 4.27875 4.2475 4.9375 4.375 C5.618125 4.58125 6.29875 4.7875 7 5 C7.33 5.66 7.66 6.32 8 7 C6.35 7 4.7 7 3 7 C2.67 6.34 2.34 5.68 2 5 C1.01 4.34 0.02 3.68 -1 3 C-0.34 3 0.32 3 1 3 C0.67 2.01 0.34 1.02 0 0 Z " fill="#EBE5B0" transform="translate(383,45)"/>
<path d="M0 0 C3.3 0 6.6 0 10 0 C10 0.99 10 1.98 10 3 C6.7 2.67 3.4 2.34 0 2 C0 1.34 0 0.68 0 0 Z " fill="#EB8857" transform="translate(166,42)"/>
<path d="M0 0 C1.65 0 3.3 0 5 0 C3.71034824 1.37562854 2.37310707 2.70766393 1 4 C0.34 4 -0.32 4 -1 4 C-1 4.66 -1 5.32 -1 6 C-1.66 6 -2.32 6 -3 6 C-3 5.01 -3 4.02 -3 3 C-2.34 3 -1.68 3 -1 3 C-0.67 2.01 -0.34 1.02 0 0 Z " fill="#E6C29B" transform="translate(267,76)"/>
<path d="M0 0 C1.32 0 2.64 0 4 0 C4 1.32 4 2.64 4 4 C2.35 4.66 0.7 5.32 -1 6 C-1.33 5.01 -1.66 4.02 -2 3 C-1.34 3 -0.68 3 0 3 C0 2.01 0 1.02 0 0 Z " fill="#E78A57" transform="translate(180,57)"/>
<path d="M0 0 C0.99 0.33 1.98 0.66 3 1 C2.67 1.66 2.34 2.32 2 3 C2.66 3 3.32 3 4 3 C4.33 2.34 4.66 1.68 5 1 C4.38722388 3.96175123 3.74627478 5.38058783 2 8 C1.34 8 0.68 8 0 8 C0.2784375 7.13375 0.2784375 7.13375 0.5625 6.25 C1.04023546 3.79307475 0.75729364 2.35602466 0 0 Z " fill="#55140F" transform="translate(24,55)"/>
<path d="M0 0 C0.99 0 1.98 0 3 0 C3.33 0.66 3.66 1.32 4 2 C4.66 2 5.32 2 6 2 C6 2.66 6 3.32 6 4 C5.34 4 4.68 4 4 4 C4 4.66 4 5.32 4 6 C3.34 6 2.68 6 2 6 C2 5.34 2 4.68 2 4 C1.34 4 0.68 4 0 4 C0 2.68 0 1.36 0 0 Z " fill="#EE8E67" transform="translate(172,55)"/>
<path d="M0 0 C2.31 0 4.62 0 7 0 C7.33 1.65 7.66 3.3 8 5 C6.68 5 5.36 5 4 5 C4 4.01 4 3.02 4 2 C2.68 1.34 1.36 0.68 0 0 Z " fill="#DD9751" transform="translate(104,53)"/>
<path d="M0 0 C0 0.66 0 1.32 0 2 C-5.75 5 -5.75 5 -8 5 C-7.8125 3.125 -7.8125 3.125 -7 1 C-2.66666667 -1.33333333 -2.66666667 -1.33333333 0 0 Z " fill="#E76C40" transform="translate(77,51)"/>
<path d="M0 0 C6.75 0.875 6.75 0.875 9 2 C9 2.66 9 3.32 9 4 C7.02 4 5.04 4 3 4 C3 3.01 3 2.02 3 1 C2.01 0.67 1.02 0.34 0 0 Z " fill="#DC824D" transform="translate(185,44)"/>
<path d="M0 0 C-3.42346555 3.14958831 -6.44262737 3.56179109 -11 4 C-10 2 -10 2 -7.75 0.875 C-4.98386705 -0.00513321 -2.87951649 -0.1645438 0 0 Z " fill="#E69E63" transform="translate(119,40)"/>
<path d="M0 0 C2.64 0.33 5.28 0.66 8 1 C7.01 1.495 7.01 1.495 6 2 C6 2.66 6 3.32 6 4 C3.03 3.505 3.03 3.505 0 3 C0 2.01 0 1.02 0 0 Z " fill="#D35839" transform="translate(122,55)"/>
<path d="M0 0 C1.65 0 3.3 0 5 0 C5 0.99 5 1.98 5 3 C4.34 3 3.68 3 3 3 C3.33 3.99 3.66 4.98 4 6 C3.01 5.67 2.02 5.34 1 5 C1.33 4.34 1.66 3.68 2 3 C1.34 3 0.68 3 0 3 C0 2.01 0 1.02 0 0 Z " fill="#E8AE78" transform="translate(246,50)"/>
<path d="M0 0 C0.33 0.66 0.66 1.32 1 2 C1.66 2 2.32 2 3 2 C3 2.66 3 3.32 3 4 C3.66 4 4.32 4 5 4 C4.67 4.99 4.34 5.98 4 7 C3.34 7 2.68 7 2 7 C2 6.34 2 5.68 2 5 C1.01 5 0.02 5 -1 5 C-0.67 3.35 -0.34 1.7 0 0 Z " fill="#EBA774" transform="translate(239,45)"/>
<path d="M0 0 C0.66 0.33 1.32 0.66 2 1 C2 2.65 2 4.3 2 6 C0.02 6 -1.96 6 -4 6 C-4 4 -4 4 -2 1.875 C-1.34 1.25625 -0.68 0.6375 0 0 Z " fill="#E86644" transform="translate(81,38)"/>
<path d="M0 0 C1.32 1.32 2.64 2.64 4 4 C3.67 4.66 3.34 5.32 3 6 C2.01 6.33 1.02 6.66 0 7 C-0.99 6.01 -1.98 5.02 -3 4 C-2.01 4 -1.02 4 0 4 C0 2.68 0 1.36 0 0 Z " fill="#59120D" transform="translate(9,56)"/>
<path d="M0 0 C0.99 0.33 1.98 0.66 3 1 C3 1.99 3 2.98 3 4 C1.68 4.33 0.36 4.66 -1 5 C-1.33 3.68 -1.66 2.36 -2 1 C-1.34 0.67 -0.68 0.34 0 0 Z " fill="#3A161A" transform="translate(12,55)"/>
<path d="M0 0 C1.98 0 3.96 0 6 0 C6.66 1.32 7.32 2.64 8 4 C5.03 3.505 5.03 3.505 2 3 C2 2.34 2 1.68 2 1 C1.34 0.67 0.68 0.34 0 0 Z " fill="#EAB98C" transform="translate(350,51)"/>
<path d="M0 0 C1.65 0.33 3.3 0.66 5 1 C4.67 2.32 4.34 3.64 4 5 C2.68 5.33 1.36 5.66 0 6 C-0.33 5.34 -0.66 4.68 -1 4 C-0.01 4 0.98 4 2 4 C1.34 2.68 0.68 1.36 0 0 Z " fill="#F2C79F" transform="translate(215,41)"/>
<path d="M0 0 C1.32 0 2.64 0 4 0 C3.67 1.32 3.34 2.64 3 4 C1.68 4.33 0.36 4.66 -1 5 C-0.67 3.35 -0.34 1.7 0 0 Z " fill="#EE7D48" transform="translate(73,10)"/>
<path d="M0 0 C0.33 0 0.66 0 1 0 C1.144375 0.78375 1.28875 1.5675 1.4375 2.375 C1.87798925 4.96421018 1.87798925 4.96421018 3 7 C1.125 6.75 1.125 6.75 -1 6 C-2.25 3.9375 -2.25 3.9375 -3 2 C-2.01 2 -1.02 2 0 2 C0 1.34 0 0.68 0 0 Z " fill="#EE8E59" transform="translate(133,49)"/>
<path d="M0 0 C0.66 0 1.32 0 2 0 C2 0.99 2 1.98 2 3 C3.65 3.33 5.3 3.66 7 4 C7 4.33 7 4.66 7 5 C4.69 5 2.38 5 0 5 C0 3.35 0 1.7 0 0 Z " fill="#F1D998" transform="translate(352,40)"/>
<path d="M0 0 C0.66 0 1.32 0 2 0 C2 1.65 2 3.3 2 5 C0.125 5.625 0.125 5.625 -2 6 C-2.66 5.34 -3.32 4.68 -4 4 C-3.01 3.67 -2.02 3.34 -1 3 C-0.67 2.01 -0.34 1.02 0 0 Z " fill="#DC5326" transform="translate(86,13)"/>
<path d="M0 0 C0.99 0 1.98 0 3 0 C3 0.66 3 1.32 3 2 C3.66 2 4.32 2 5 2 C5 2.99 5 3.98 5 5 C3.68 4.67 2.36 4.34 1 4 C0.67 2.68 0.34 1.36 0 0 Z " fill="#D34C21" transform="translate(77,10)"/>
<path d="M0 0 C2.64 0 5.28 0 8 0 C6.8125 1.5625 6.8125 1.5625 5 3 C2.3125 2.6875 2.3125 2.6875 0 2 C0 1.34 0 0.68 0 0 Z " fill="#DD8759" transform="translate(259,86)"/>
<path d="M0 0 C-0.33 0.99 -0.66 1.98 -1 3 C-2.98 3 -4.96 3 -7 3 C-7 2.34 -7 1.68 -7 1 C-4.53721199 -0.231394 -2.7204945 -0.07159196 0 0 Z " fill="#D8774C" transform="translate(83,62)"/>
<path d="M0 0 C1.32 0 2.64 0 4 0 C4.66 1.65 5.32 3.3 6 5 C4.68 5 3.36 5 2 5 C2 3.68 2 2.36 2 1 C1.34 0.67 0.68 0.34 0 0 Z " fill="#F0BE9C" transform="translate(302,42)"/>
<path d="M0 0 C1.32 0.66 2.64 1.32 4 2 C2.9375 3.5 2.9375 3.5 1 5 C-2.6875 5.1875 -2.6875 5.1875 -6 5 C-6 4.67 -6 4.34 -6 4 C-4.35 3.67 -2.7 3.34 -1 3 C-0.67 2.01 -0.34 1.02 0 0 Z " fill="#D53811" transform="translate(60,40)"/>
<path d="M0 0 C1.98 0 3.96 0 6 0 C5.67 1.65 5.34 3.3 5 5 C2 4 2 4 0.8125 1.9375 C0.544375 1.298125 0.27625 0.65875 0 0 Z " fill="#E6704F" transform="translate(84,9)"/>
</svg>
